<?xml version="1.0" standalone="no"?>
<!DOCTYPE svg PUBLIC "-//W3C//DTD SVG 1.1//EN" "http://www.w3.org/Graphics/SVG/1.1/DTD/svg11.dtd" >
<!--
2013-9-30: Created.
-->
<svg>
<metadata>
Created by iconfont
</metadata>
<defs>

<font id="iconfont" horiz-adv-x="1024" >
  <font-face
    font-family="iconfont"
    font-weight="500"
    font-stretch="normal"
    units-per-em="1024"
    ascent="896"
    descent="-128"
  />
    <missing-glyph />
    
<<<<<<< HEAD
    <glyph glyph-name="chulichaoshi" unicode="&#58912;" d="M327.073185 896h232.106667a59.012741 59.012741 0 0 0 0-117.987556h-232.106667a59.012741 59.012741 0 0 0-59.012741 58.974815C268.060444 869.982815 294.115556 896 327.073185 896zM790.224593 262.295704a37.925926 37.925926 0 0 0 12.667259-13.425778l164.333037-294.039704a37.925926 37.925926 0 0 0-33.109333-56.433778H581.404444a37.925926 37.925926 0 0 0-31.933629 58.405926l188.416 294.039704a37.925926 37.925926 0 0 0 52.375704 11.45363zM181.513481 826.254222c25.258667 0 45.928296-20.66963 45.928297-45.966222l0.265481-4.664889c2.351407-23.134815 21.997037-41.301333 45.738667-41.301333h338.640593c25.296593 0 45.966222 20.707556 45.966222 45.966222l0.227555 4.702815c2.389333 23.134815 22.034963 41.301333 45.738667 41.301333h59.771259c46.724741 0 83.512889-37.546667 84.271408-83.512889v-380.852148a37.925926 37.925926 0 0 0-51.693037-35.309037l-5.916445 1.972148a66.522074 66.522074 0 0 1-18.469926 2.578963c-21.997037 0-45.473185-5.461333-67.963259-34.285037-36.181333-46.383407-98.948741-139.757037-188.22637-280.158815l-50.403556-79.720296a75.851852 75.851852 0 0 0-64.208593-35.498667H121.742222A83.702519 83.702519 0 0 0 38.229333-14.980741V742.779259c0 45.966222 37.546667 83.512889 83.512889 83.512889z m587.851852-830.008889a28.444444 28.444444 0 1 1 0-56.888889 28.444444 28.444444 0 0 1 0 56.888889z m2.654815 172.259556l-1.896296-0.037926a29.961481 29.961481 0 0 1-28.065185-31.819852l6.106074-97.431704a23.893333 23.893333 0 0 1 47.710815 0l6.106074 99.290074a29.961481 29.961481 0 0 1-29.961482 29.999408z m-421.963852-16.459852H228.238222a43.652741 43.652741 0 1 1 0-87.343407H349.297778l4.664889 0.227555a44.904296 44.904296 0 0 1 39.74637 43.425185c0 24.538074-19.911111 43.690667-43.652741 43.690667z m126.407111 211.474963H228.238222c-24.538074 0-43.690667-19.949037-43.690666-43.690667 0-23.74163 19.911111-42.894222 43.690666-42.894222h248.225185l4.702815 0.265482a44.752593 44.752593 0 0 1 38.987852 42.62874c0 24.538074-19.949037 43.690667-43.690667 43.690667z m181.589334 196.114963H228.238222a43.652741 43.652741 0 1 1 0-87.343407H658.014815c23.74163 0 42.894222 19.949037 43.690666 43.690666 0 24.500148-19.949037 43.652741-43.690666 43.652741z"  horiz-adv-x="1024" />

    
    <glyph glyph-name="chulizhong" unicode="&#58913;" d="M333.677714 896h223.817143a56.905143 56.905143 0 0 0 0-113.773714h-223.817143a56.905143 56.905143 0 0 0-56.905143 56.868571C276.772571 870.912 301.897143 896 333.677714 896zM754.797714 828.781714h-57.636571c-24.393143 0-44.324571-19.968-44.324572-44.361143 0-24.356571-19.931429-44.324571-44.324571-44.324571h-326.582857A44.470857 44.470857 0 0 0 237.641143 784.457143c0 24.393143-19.931429 44.361143-44.324572 44.361143H135.68c-44.361143 0-80.530286-36.205714-80.530286-80.530286v-730.697143c0-44.324571 36.205714-80.530286 80.530286-80.530286h356.827429a31.524571 31.524571 0 0 1 31.780571 31.744c0 3.693714-0.731429 7.387429-1.462857 10.349715-48.054857 129.316571 18.468571 273.371429 148.48 321.389714a250.733714 250.733714 0 0 0 127.817143 11.812571c17.005714-2.925714 33.28 8.886857 36.205714 25.856 0 1.462857 0.731429 3.693714 0.731429 5.924572V748.251429a81.371429 81.371429 0 0 1-81.261715 80.566857c0.731429 0 0 0 0 0z m-101.961143-341.357714H238.372571a42.093714 42.093714 0 1 0 0 84.224H652.8c22.893714 0 42.130286-18.468571 42.130286-42.093714-0.731429-22.893714-19.236571-42.130286-42.130286-42.130286z m-175.104-188.379429H238.372571c-22.930286 0-42.130286 18.468571-42.130285 41.362286s18.468571 42.130286 42.130285 42.130286h239.36c22.893714 0 42.130286-18.468571 42.130286-42.130286-0.731429-22.162286-19.236571-41.362286-42.130286-41.362286zM355.108571 94.354286H238.372571a42.093714 42.093714 0 1 0 0 84.224H355.84c22.893714 0 42.093714-18.468571 42.093714-42.130286a43.227429 43.227429 0 0 0-42.825143-42.093714zM660.224 233.216a193.572571 193.572571 0 1 0 193.572571-335.250286 193.572571 193.572571 0 0 0-193.572571 335.250286zM749.714286 164.571429a36.571429 36.571429 0 0 1-36.571429-36.571429v-92.16l65.28-79.286857 3.108572-3.364572a36.571429 36.571429 0 0 1 48.347428-1.609142l3.364572 3.108571a36.571429 36.571429 0 0 1 1.645714 48.347429L786.285714 62.098286V128l-0.256 4.278857A36.571429 36.571429 0 0 1 749.714286 164.571429z"  horiz-adv-x="1024" />

    
    <glyph glyph-name="weiwancheng" unicode="&#58918;" d="M333.677714 896h223.817143a56.905143 56.905143 0 0 0 0-113.773714h-223.817143a56.905143 56.905143 0 0 0-56.905143 56.868571C276.772571 870.912 301.897143 896 333.677714 896zM754.797714 828.781714h-57.636571c-24.393143 0-44.324571-19.968-44.324572-44.361143 0-24.356571-19.931429-44.324571-44.324571-44.324571h-326.582857A44.470857 44.470857 0 0 0 237.641143 784.457143c0 24.393143-19.931429 44.361143-44.324572 44.361143H135.68c-44.361143 0-80.530286-36.205714-80.530286-80.530286v-730.697143c0-44.324571 36.205714-80.530286 80.530286-80.530286h356.827429a31.524571 31.524571 0 0 1 31.780571 31.744c0 3.693714-0.731429 7.387429-1.462857 10.349715-48.054857 129.316571 18.468571 273.371429 148.48 321.389714a250.733714 250.733714 0 0 0 127.817143 11.812571c17.005714-2.925714 33.28 8.886857 36.205714 25.856 0 1.462857 0.731429 3.693714 0.731429 5.924572V748.251429a81.371429 81.371429 0 0 1-81.261715 80.566857c0.731429 0 0 0 0 0z m-101.961143-341.357714H238.372571a42.093714 42.093714 0 1 0 0 84.224H652.8c22.893714 0 42.130286-18.468571 42.130286-42.093714-0.731429-22.893714-19.236571-42.130286-42.130286-42.130286z m-175.104-188.379429H238.372571c-22.930286 0-42.130286 18.468571-42.130285 41.362286s18.468571 42.130286 42.130285 42.130286h239.36c22.893714 0 42.130286-18.468571 42.130286-42.130286-0.731429-22.162286-19.236571-41.362286-42.130286-41.362286zM355.108571 94.354286H238.372571a42.093714 42.093714 0 1 0 0 84.224H355.84c22.893714 0 42.093714-18.468571 42.093714-42.130286a43.227429 43.227429 0 0 0-42.825143-42.093714zM660.224 233.216a193.572571 193.572571 0 1 0 193.572571-335.250286 193.572571 193.572571 0 0 0-193.572571 335.250286z m75.337143-83.273143a36.571429 36.571429 0 0 1-48.274286-54.784l29.001143-29.001143-29.001143-29.001143-3.035428-3.437714a36.571429 36.571429 0 0 1 54.747428-48.274286l29.001143 29.001143 29.001143-29.001143 3.437714-3.035428a36.571429 36.571429 0 0 1 48.274286 54.747428l-28.964572 29.001143 28.964572 29.001143 3.035428 3.437714a36.571429 36.571429 0 0 1-54.747428 48.274286l-29.001143-28.964571-29.001143 28.964571z"  horiz-adv-x="1024" />

    
    <glyph glyph-name="yiwancheng" unicode="&#58919;" d="M334.139833 896h223.237125a56.757674 56.757674 0 0 0 0-113.478872h-223.237125a56.757674 56.757674 0 0 0-56.757674 56.721198C277.382159 870.977015 302.44162 896 334.139833 896zM754.168509 828.955909h-57.487208c-24.329928 0-44.209705-19.916253-44.209705-44.246182 0-24.293452-19.879777-44.209705-44.209705-44.209705h-325.736524A44.355612 44.355612 0 0 0 238.352139 784.746204c0 24.329928-19.879777 44.246182-44.209706 44.246182H136.655226c-44.246182 0-80.321593-36.111888-80.321593-80.321593v-728.803555c0-44.209705 36.111888-80.321593 80.321593-80.321593h355.902717a31.442876 31.442876 0 0 1 31.698213 31.661736c0 3.684142-0.729533 7.368284-1.459066 10.322893-47.930324 128.98145 18.42071 272.662992 148.095217 320.556839a250.083943 250.083943 0 0 0 127.485907 11.781959c16.961644-2.918132 33.193756 8.863827 36.111888 25.788995 0 1.459066 0.729533 3.684142 0.729533 5.909218V748.634316a81.160556 81.160556 0 0 1-81.051126 80.35807c0.729533 0 0 0 0 0z m-101.696913-340.473092H239.081672a41.984629 41.984629 0 1 0 0 84.005735H652.435119c22.834386 0 42.021106-18.42071 42.021106-41.984629-0.729533-22.834386-19.18672-42.021106-42.021106-42.021106z m-174.650221-187.891247H239.081672c-22.870862 0-42.021106 18.42071-42.021106 41.255096s18.42071 42.021106 42.021106 42.021106h238.739703c22.834386 0 42.021106-18.42071 42.021106-42.021106-0.729533-22.104853-19.18672-41.255096-42.021106-41.255096zM355.515153 96.431735H239.081672a41.984629 41.984629 0 1 0 0 84.005736H356.244686c22.834386 0 41.984629-18.42071 41.984629-42.021106a43.115406 43.115406 0 0 0-42.714162-41.98463zM563.322653 67.724608a193.070932 193.070932 0 1 1 386.105387 0 193.070932 193.070932 0 0 1-386.105387 0zM734.252255-19.199259a35.491785 35.491785 0 0 0-23.563918 9.556883l-63.359949 63.359949a32.938419 32.938419 0 0 0 0 47.164314 32.938419 32.938419 0 0 0 47.164314 0l39.759553-39.759553 84.771745 84.698791a32.938419 32.938419 0 0 0 47.164314 0 32.938419 32.938419 0 0 0 0-47.164314l-107.60613-107.60613c-7.368284-6.565798-15.466101-10.286417-24.329929-10.286417z"  horiz-adv-x="1024" />

    
    <glyph glyph-name="chaoshitishi" unicode="&#59083;" d="M1024 10.971429a73.142857 73.142857 0 0 0-73.142857-73.142858H73.142857a73.142857 73.142857 0 0 0-73.142857 73.142858 71.870171 71.870171 0 0 0 14.774857 43.593142L14.628571 54.857143l424.228572 731.428571h6.144a73.142857 73.142857 0 0 0 133.997714 0H585.142857l424.228572-731.428571-0.146286-0.292572A71.870171 71.870171 0 0 0 1024 10.971429z m-512 29.257142a43.885714 43.885714 0 1 1-43.885714 43.885715 43.885714 43.885714 0 0 1 43.885714-43.885715z m0 526.628572a58.514286 58.514286 0 0 1-58.514286-58.514286l14.628572-263.314286a43.885714 43.885714 0 0 1 87.771428 0l14.628572 263.314286a58.514286 58.514286 0 0 1-58.514286 58.514286z"  horiz-adv-x="1024" />

    
    <glyph glyph-name="xingongdan" unicode="&#58920;" d="M853.446345 233.89513a193.374225 193.374225 0 1 0-193.374225-334.906767 193.374225 193.374225 0 0 0 193.374225 334.906767zM193.643115 828.85059c24.331614 0 44.24262-19.94754 44.242619-44.315687l0.255738-4.493677a44.461823 44.461823 0 0 1 39.52974-39.529739l4.53021-0.255738h326.211686c22.833722 0 41.758311 17.536298 44.05995 39.785477l0.219203 4.493677c0 22.833722 17.536298 41.794845 39.785478 44.05995l4.493676 0.255737h57.577513l5.845433-0.219203a81.214982 81.214982 0 0 0 75.040744-74.529269l0.292272-5.699297v-403.700205c0-2.265105-0.730679-4.457143-0.730679-5.955034a31.601871 31.601871 0 0 0-36.168616-25.829507 250.476797 250.476797 0 0 1-127.686173-11.800467c-129.878211-47.969083-196.333475-191.876333-148.327858-321.060398 0.730679-2.922716 1.461358-6.64918 1.461358-10.339109a31.455735 31.455735 0 0 0-27.729272-31.49227l-4.018735-0.219204H136.065601a80.666973 80.666973 0 0 0-80.265099 74.711939l-0.18267 5.735831V748.402821c0 42.342854 33.063229 77.269315 74.711938 80.228566l5.735831 0.219203h57.54098z m539.606518-673.539997c-22.54145 21.774237-61.742384 6.210772-61.742385-26.523652v-138.390622l0.292272-4.237939a36.533955 36.533955 0 0 1 36.278217-32.296016l4.274473 0.255738a36.533955 36.533955 0 0 1 32.259483 36.278217l-0.036534 37.885712 51.330207-61.340511 2.849648-3.032318c22.54145-21.810771 61.70585-6.210772 61.70585 26.487117V128.786941l-0.255737 4.274473a36.533955 36.533955 0 0 1-36.278218 32.259483l-4.274472-0.255738a36.533955 36.533955 0 0 1-32.259483-36.278218l-0.036534-37.812643-51.257139 61.267443zM356.000011 179.349935H238.652947a42.050582 42.050582 0 0 1-4.53021-83.918495l4.53021-0.219203H355.269332c22.870256 0 42.050582 18.449647 42.781262 42.050582 0 23.637469-19.180326 42.087116-42.050583 42.087116z m121.767673 203.713334H238.652947c-23.637469 0-42.087116-19.21686-42.087116-42.087116 0-21.33583 16.732551-38.835594 37.556906-41.1007l4.53021-0.219203h239.114737c22.870256 0 41.319903 19.180326 42.087116 41.319903 0 23.637469-19.21686 42.087116-42.087116 42.087116z m174.924577 188.917083H238.652947a42.050582 42.050582 0 0 1-4.53021-83.881961l4.53021-0.255738H652.655727c22.870256 0 41.319903 19.21686 42.087117 42.087116 0 23.600935-19.21686 42.050582-42.087117 42.050583zM557.484774 896a56.846834 56.846834 0 0 0 0-113.657135H333.860435a56.846834 56.846834 0 0 0-56.846835 56.810301C277.0136 870.937707 302.112428 896 333.860435 896h223.587805z"  horiz-adv-x="1024" />

    
    <glyph glyph-name="weipingjia" unicode="&#58921;" d="M170.59 226.066L78.54 31.734s-15.342-35.798 30.684-56.254c46.026-20.456 71.596 0 76.71 0l86.938 76.71v-112.508c0-5.114 5.114-35.798 51.14-56.254 46.026-25.57 61.368 10.228 61.368 10.228l81.824 178.99c-122.736 10.228-225.016 66.482-296.612 153.42z m669.935 0l86.938-199.446s15.342-35.798-30.684-56.254c-46.026-20.456-71.596 0-76.71 0l-86.938 76.71v-112.508c0-5.114-5.114-35.798-51.14-56.254-46.026-20.456-61.368 15.342-61.368 15.342l-81.824 178.99c122.736 10.228 230.13 66.482 301.726 153.42zM503 896c214.788 0 388.664-173.876 388.664-388.664 0-214.788-173.876-388.664-388.664-388.664S114.337 292.548 114.337 507.336C119.45 722.124 288.213 896 503 896z m15.342-199.446c-5.114 5.114-10.228 10.228-15.342 10.228-5.114 0-10.228-5.114-15.342-10.228l-56.254-102.28c-5.114 0-10.228-5.114-15.342-5.114l-107.394-20.456c-5.114 0-10.228-5.114-15.342-10.228 0-5.114 0-10.228 5.114-15.342l76.71-86.938c10.228-5.114 10.228-10.228 10.228-20.456l-15.342-102.28c0-5.114 0-10.228 5.114-15.342 5.114-5.114 10.228-5.114 20.456 0L503 364.144h15.342l97.166-46.026c5.114-5.114 10.228 0 20.456 0 5.114 5.114 10.228 10.228 5.114 15.342L630.85 451.082c0 5.114 0 10.228 5.114 15.342l76.71 76.71c5.114 5.114 5.114 10.228 5.114 15.342 0 5.114-5.114 10.228-15.342 10.228l-117.622 25.57c-5.114 0-10.228 5.114-10.228 10.228l-56.254 92.052z"  horiz-adv-x="1024" />

    
    <glyph glyph-name="xinzhichi" unicode="&#58922;" d="M951.424948 342.713928L700.32018 597.83244s-9.338099 5.119572-15.850195 0c-33.789175-35.099786-61.148168-62.868344-83.428545-82.568457a151.539331 151.539331 0 0 0-79.169062-35.099786c-25.884556-2.170699-61.148168-7.290271-97.886217 32.150913a16.75124 16.75124 0 0 0-4.30044 11.71358c0 4.382354 1.474437 8.027489 4.341397 10.935406L593.054907 705.957801c-14.375758 13.884279-23.754814 23.345248-28.055254 27.03134-40.301271 35.796047-88.466204 59.182252-126.637733 78.923322l-7.167401 3.686092c-5.774877 3.645135-12.286973 6.553052-18.717155 9.460969l-6.471139 2.948874-0.737219 0.737218C384.422109 839.681022 354.933374 855.039738 326.87812 855.039738c-20.150635 0-37.393354-8.027489-53.243549-23.386205L39.772522 592.671912c-43.127275-43.823536-40.956576-80.397759-38.826834-101.572309 0.737218-3.686092 0.737218-6.553052 0.737218-8.068445 1.43348-17.529415 17.979937-40.137445 45.297973-73.066532 5.037659-5.85679 10.812536-12.409843 15.153933-18.266633 15.809238-19.74107 27.318036-39.482139 38.826834-58.48599l5.037659-8.764708c19.413417-32.150912 41.734751-69.421396 87.073681-114.719369l292.839518-298.901092c20.150635-20.478288 46.77241-34.362567 74.131403-38.007702 3.563222-0.737218 8.600881-0.737218 12.901321-0.737219 22.321334 0 42.471969 8.027489 56.11051 22.648987l6.512095 6.553052c25.884556 26.335078-10.075318 65.079999-10.075317 65.079999l-119.429376 121.313378a17.365588 17.365588 0 0 0-5.037659 11.672625c0 4.42331 1.43348 8.805664 5.037659 11.71358a16.874109 16.874109 0 0 0 11.467841 5.119572c4.341397 0 8.641838-1.474437 11.549755-5.119572l119.429375-121.313378s43.168231-38.744921 76.998363-16.792196c7.167401 6.553052 14.375758 13.106104 22.280378 20.478288 27.358993 31.372737-5.037659 71.592095-5.037659 71.592095l-129.504694 131.552522a17.365588 17.365588 0 0 0-5.037659 11.672624c0 4.382354 1.43348 8.764707 5.037659 11.713581a16.874109 16.874109 0 0 0 11.508798 5.119572c4.341397 0 8.641838-1.474437 11.508798-5.119572l136.713051-138.146531s33.092913-35.796047 64.056085-19.74107l8.600881 7.331227 25.925512 23.345249s1.43348 2.211655 2.866961 3.686092c25.925513 35.099786-4.30044 73.066532-4.300441 73.066531l-142.487928 144.74054a17.365588 17.365588 0 0 0-5.037659 11.672624c0 4.382354 1.474437 8.764707 5.037659 11.713581a16.874109 16.874109 0 0 0 11.549755 5.078615c4.30044 0 8.600881-1.43348 11.467841-5.078615l113.695455-115.497545s43.90545-42.390056 91.374121-11.672624c11.549754 11.672624 20.887854 21.17455 24.492033 40.178401 8.600881 35.099786-3.604179 66.513479-28.792473 92.070383zM1131.961535 579.729634l-275.228191 266.38157c-62.335909 60.41095-130.610521 66.062957-181.970068 16.382631l-106.446141-103.046746L379.712103 576.944587a34.976916 34.976916 0 0 1-0.737219-50.417545c45.502756-39.072574 101.285613-52.588244 101.285613-52.588244-15.399673 4.259484-31.536564 12.778452-47.714411 29.120125a15.850195 15.850195 0 0 0-4.382354 11.385929c0 4.259484 1.474437 7.781749 4.382354 10.648709l29.365865 28.423864 158.501949 153.423334 107.920578 104.439269c13.188017 12.778452 22.7309 12.778452 29.365865 12.041233 8.805664-1.392524 24.16438-7.085488 46.199018-28.382907l275.228191-266.381571c25.679773-24.860642 49.147891-60.41095 19.085764-89.531075l-56.520075-54.677029a35.427438 35.427438 0 0 1-10.976362-25.556903c0-9.624795 3.931831-18.840025 10.976362-25.59786 7.372184-7.085488 16.915066-10.64871 26.416992-10.64871a37.884833 37.884833 0 0 1 26.457948 10.64871l56.520075 54.717985c55.004682 53.243549 47.673454 127.129212-19.126721 191.758689z"  horiz-adv-x="1187" />

    
    <glyph glyph-name="shouye" unicode="&#58923;" d="M570.262982 874.675291a82.162518 82.162518 0 0 1-110.395217 0L13.605825 451.03852a41.154401 41.154401 0 0 1 55.100087-61.146468l7.119126 6.729037v-442.214765A82.308802 82.308802 0 0 1 158.182601-128h239.612234v247.852867a57.976994 57.976994 0 0 0 58.025755 58.025755h112.735753a58.025755 58.025755 0 0 0 58.025754-58.025755V-128h245.268527a82.406324 82.406324 0 0 1 82.357563 82.406324v436.802279c18.285427-16.578787 44.226353-15.310997 59.488589 1.657879a41.154401 41.154401 0 0 1-3.023191 58.172038L570.311744 874.675291z"  horiz-adv-x="1024" />

    
    <glyph glyph-name="weixian" unicode="&#58989;" d="M511.88846 832.043363c-247.323898 0-447.820282-200.496383-447.820282-447.820282 0-247.323898 200.49536-447.820282 447.820282-447.820282 247.323898 0 447.819259 200.49536 447.819258 447.820282 0.001023 247.323898-200.49536 447.820282-447.819258 447.820282z m34.447556-657.97156c0-19.025309-15.423271-34.447557-34.447556-34.447556-19.025309 0-34.447557 15.422248-34.447557 34.447556v3.464915c0 19.024286 15.422248 34.447557 34.447557 34.447557 19.024286 0 34.447557-15.423271 34.447556-34.447557v-3.464915z m0 137.79125c0-19.025309-15.423271-34.447557-34.447556-34.447557-19.025309 0-34.447557 15.422248-34.447557 34.447557V590.909443c0 19.024286 15.422248 34.447557 34.447557 34.447557 19.024286 0 34.447557-15.423271 34.447556-34.447557V311.863053z"  horiz-adv-x="1024" />

    
    <glyph glyph-name="biaoji" unicode="&#58911;" d="M887.808 505.856l-253.44 253.44c-11.776 11.776-31.744 11.776-43.52 0L422.912 591.36c-88.576 10.24-179.712-14.336-252.416-73.728-13.824-11.776-15.36-32.768-2.048-45.568l183.296-183.296-209.92-209.92c-3.072-3.072-5.12-7.168-5.632-11.264l-8.704-55.296c-1.024-6.656 4.608-12.8 11.264-11.776l56.32 7.68c4.608 0.512 8.704 2.56 11.776 5.632l209.92 209.92 183.296-183.296c12.8-12.8 33.792-11.776 45.568 2.048 59.392 72.704 83.968 164.352 73.728 252.416l167.424 167.424c12.8 11.776 12.8 31.232 1.024 43.52z"  horiz-adv-x="1024" />

    
    <glyph glyph-name="sousuo" unicode="&#58910;" d="M988.028263-127.863485a49.213705 49.213705 0 0 0-30.784162 11.945074l-138.426343 136.242101a256.648447 256.648447 0 0 0-159.040128-54.469537c-70.032262 0-134.945207 27.234769-182.862019 74.946807A250.505266 250.505266 0 0 0 400.057592 222.980403c0 68.189308 27.303026 132.89748 76.858019 182.315957a256.307159 256.307159 0 0 0 182.930276 74.946808c70.032262 0 135.013465-27.303026 182.930276-74.946808a250.505266 250.505266 0 0 0 76.858019-182.2477c0-49.418478-22.183709-110.782029-49.554993-153.37475l140.132783-139.654979c17.064391-17.064391 18.839088-34.128783 1.706439-51.193174 0 1.774697-11.945074-6.757499-23.890148-6.757499zM658.071191 37.388082c49.554993 0 97.403546 18.770831 133.307025 54.537795a183.612852 183.612852 0 0 1 54.67431 132.829222 186.547927 186.547927 0 0 1-187.981335 187.435276c-49.554993 0-97.471804-18.770831-133.307026-54.537795a183.612852 183.612852 0 0 1-54.742568-132.897481c0-49.35022 18.839088-97.062258 54.742568-132.829222a195.216638 195.216638 0 0 1 133.307026-54.537795zM789.740035 827.810692H68.462338v-815.95094h283.678443v-68.189308H80.407412A80.134382 80.134382 0 0 0 0.068258 23.736568V815.933875C0.068258 860.233036 35.971737 896 80.407412 896h699.093988c44.367418 0 80.339155-35.766964 80.339155-80.066125v-299.855485h-68.394081V827.878949h-1.706439z m-470.021597-666.057326H206.888682c-25.664845 0-46.142114 15.357952-46.142115 34.128783 0 18.702573 20.47727 33.992268 46.142115 33.992268h112.829756c25.596587 0 46.142114-15.289695 46.142114-34.060526 0-18.702573-20.47727-34.128783-46.142114-34.128782zM165.865885 628.566858c0 18.702573 18.770831 34.060525 42.729236 34.060525h391.388881c23.890148 0 42.729236-15.357952 42.729236-34.128783 0-18.702573-18.770831-34.060525-42.729236-34.060525H208.595121c-23.890148 0-42.729236 15.357952-42.729236 34.128783z m1.706439-223.20224c0 18.770831 18.770831 34.128783 42.729236 34.128783h153.852553c23.890148 0 42.729236-15.357952 42.729236-34.128783s-18.839088-34.128783-42.729236-34.128783H210.30156c-23.890148 0-42.729236 15.357952-42.729236 34.128783z"  horiz-adv-x="1024" />

    
    <glyph glyph-name="kuaiting" unicode="&#59158;" d="M896.512 111.104H422.4c-72.704 0-283.136 36.352-355.328 253.952l852.992-133.12-23.552-120.832z m-604.16 363.008s76.8 131.584 82.944 145.408c6.144 13.824 23.552 12.288 23.552 12.288s239.104-9.216 260.608-12.288c18.432-2.56 23.552-8.704 23.552-24.064 0-26.624-35.328-41.472-35.328-84.48 0-17.92 11.776-105.984 11.776-105.984l71.168-12.288V452.608s-26.112 6.144-36.864 9.216c-11.776 3.072-10.752 12.288-10.752 12.288V486.4c0 17.92 23.552 12.288 23.552 12.288s201.728-29.696 238.08-36.352c30.72-5.632 23.04-24.576 23.04-24.576l-35.84-156.672L55.296 437.76V498.176l237.056-24.064z m568.832-97.28l59.392-12.288 11.776 48.128-71.168 12.288v-48.128zM766.464 389.12l71.168-12.288V437.248l-71.168 12.288V389.12z m-154.112 24.064V522.24c0 25.088 11.776 48.128 11.776 48.128l-142.336 12.288c-6.144-14.336-11.776-48.128-11.776-48.128l-11.776-96.768 154.112-24.576z m-189.952 36.352c7.68 78.336 24.064 135.68 24.064 135.68l-46.08 3.072c-33.792-44.544-60.928-126.464-60.928-126.464l82.944-12.288z"  horiz-adv-x="1024" />

    
    <glyph glyph-name="ziyuan1" unicode="&#58905;" d="M911.348419 823.725974A146.385403 146.385403 0 0 1 834.034187 887.396518 180.778866 180.778866 0 0 1 767.521208 895.639579H220.636714a3.410922 3.410922 0 0 1-2.842435 0 162.871526 162.871526 0 0 1-17.338853-5.68487 137.289611 137.289611 0 0 1-56.8487-31.266785l-3.695166-2.842435A142.12175 142.12175 0 0 1 103.244149 806.955607a3.410922 3.410922 0 0 1 0-2.842435v-1.989704a145.816916 145.816916 0 0 1-11.085497-56.8487v-723.399708a145.816916 145.816916 0 0 1 11.085497-56.8487v-1.705461a3.410922 3.410922 0 0 0 0-2.842435 142.12175 142.12175 0 0 1 35.246194-48.321395l3.695165-2.842435a142.12175 142.12175 0 0 1 56.8487-31.266785 109.433748 109.433748 0 0 1 18.475828-3.695166 3.410922 3.410922 0 0 0 2.842435 0h2.842435A28.42435 28.42435 0 0 1 232.574941-127.637021h534.946267a180.494623 180.494623 0 0 1 66.512979 8.243061 152.63876 152.63876 0 0 1 55.427483 34.961951 108.581017 108.581017 0 0 1 22.170993 28.42435 150.649055 150.649055 0 0 1 21.318262 77.598475V743.285063a175.946727 175.946727 0 0 1-21.318262 80.440911z m-682.1844-373.211716a38.088629 38.088629 0 0 0 37.804386 37.804386h318.636963a38.088629 38.088629 0 0 0 37.804386-37.804386A38.657116 38.657116 0 0 0 585.605368 412.425629H265.831431a37.520142 37.520142 0 0 0-37.804386 37.804386z m554.843312-183.905544l-227.3948-218.014765a40.078334 40.078334 0 0 0-55.427482 0l-124.782897 119.950757a36.383168 36.383168 0 0 0 0 53.437778 41.215308 41.215308 0 0 0 56.8487 0l96.927034-93.800355 198.97045 191.295876a41.215308 41.215308 0 0 0 56.8487 0 37.804386 37.804386 0 0 0-1.705461-53.437778z m11.085497 390.550569a38.088629 38.088629 0 0 0-37.804386-37.804386H265.831431a37.804386 37.804386 0 1 0 0 75.608771h491.457011a38.088629 38.088629 0 0 0 37.804386-37.804385z m0 0"  horiz-adv-x="1024" />

    
    <glyph glyph-name="ico-bug" unicode="&#58906;" d="M969.142857 347.42857100000003q0-14.857143-10.857143-25.714286t-25.714286-10.857143l-128 0q0-97.714286-38.285714-165.714286l118.857143-119.428571q10.857143-10.857143 10.857143-25.714286t-10.857143-25.714286q-10.285714-10.857143-25.714286-10.857143t-25.714286 10.857143l-113.142857 112.571429q-2.857143-2.857143-8.571429-7.428571t-24-16.285714-37.142857-20.857143-46.857143-16.571429-55.428571-7.428571l0 512-73.142857 0 0-512q-29.142857 0-58 7.714286t-49.714286 18.857143-37.714286 22.285714-24.857143 18.571429l-8.571429 8-104.571429-118.285714q-11.428571-12-27.428571-12-13.714286 0-24.571429 9.142857-10.857143 10.285714-11.714286 25.428571t8.857143 26.571429l115.428571 129.714286q-33.142857 65.142857-33.142857 156.571429l-128 0q-14.857143 0-25.714286 10.857143t-10.857143 25.714286 10.857143 25.714286 25.714286 10.857143l128 0 0 168-98.857143 98.857143q-10.857143 10.857143-10.857143 25.714286t10.857143 25.714286 25.714286 10.857143 25.714286-10.857143l98.857143-98.857143 482.285714 0 98.857143 98.857143q10.857143 10.857143 25.714286 10.857143t25.714286-10.857143 10.857143-25.714286-10.857143-25.714286l-98.857143-98.857143 0-168 128 0q14.857143 0 25.714286-10.857143t10.857143-25.714286z m-274.285714 329.142857l-365.714286 0q0 76 53.428571 129.428571t129.428571 53.428571 129.428571-53.428571 53.428571-129.428571z"  horiz-adv-x="1024" />

    
    <glyph glyph-name="gengduo1" unicode="&#58903;" d="M512 32.638976m-109.441024 0a53.438 53.438 0 1 0 218.882048 0 53.438 53.438 0 1 0-218.882048 0ZM512 378.238976m-109.441024 0a53.438 53.438 0 1 0 218.882048 0 53.438 53.438 0 1 0-218.882048 0ZM512 735.358976m-109.441024 0a53.438 53.438 0 1 0 218.882048 0 53.438 53.438 0 1 0-218.882048 0Z"  horiz-adv-x="1024" />

    
    <glyph glyph-name="zhuangtaibiangeng" unicode="&#59331;" d="M256 441.6c25.6-6.4 38.4-6.4 57.6-6.4 32 64 76.8 121.6 160 134.4 51.2 12.8 102.4 6.4 147.2-19.2-115.2 6.4-192-51.2-198.4-134.4 25.6-6.4 44.8-6.4 70.4-12.8-51.2-38.4-96-70.4-147.2-108.8C320 345.6 288 390.4 256 441.6zM710.4 332.8c-38.4-70.4-83.2-128-166.4-140.8-51.2-6.4-96 0-147.2 25.6 96-6.4 172.8 25.6 204.8 134.4-25.6 6.4-44.8 6.4-70.4 12.8 51.2 38.4 96 70.4 147.2 108.8 25.6-51.2 57.6-96 89.6-153.6-25.6 6.4-38.4 12.8-57.6 12.8zM12.8 281.6c19.2-102.4 70.4-198.4 147.2-268.8 12.8-6.4 25.6-12.8 38.4-12.8 12.8 0 25.6 12.8 32 25.6l64 102.4c12.8 19.2 6.4 38.4-6.4 51.2-32 38.4-51.2 76.8-64 121.6-6.4 25.6-25.6 38.4-44.8 38.4H57.6c-12.8 0-25.6-6.4-32-19.2-12.8-12.8-12.8-25.6-12.8-38.4z m614.4-211.2c-12.8 19.2-32 25.6-51.2 19.2-51.2-12.8-102.4-6.4-153.6 6.4-19.2 6.4-44.8 0-51.2-19.2l-57.6-102.4c-6.4-12.8-6.4-25.6-6.4-38.4 6.4-12.8 12.8-25.6 25.6-25.6 57.6-25.6 121.6-38.4 179.2-38.4 51.2 0 102.4 6.4 147.2 19.2 12.8 6.4 25.6 12.8 32 25.6 6.4 12.8 6.4 25.6 0 38.4-6.4 6.4-64 115.2-64 115.2z m211.2 704c-6.4 6.4-19.2 12.8-32 12.8h-6.4c-12.8 0-25.6-12.8-32-25.6l-57.6-102.4c-12.8-19.2-6.4-38.4 6.4-57.6 38.4-38.4 70.4-83.2 83.2-140.8 6.4-19.2 25.6-32 44.8-32h121.6c12.8 0 25.6 6.4 38.4 19.2 6.4 12.8 12.8 25.6 6.4 38.4-25.6 115.2-83.2 217.6-172.8 288zM691.2 844.8c-6.4 12.8-19.2 25.6-32 25.6C614.4 883.2 563.2 896 512 896c-57.6 0-121.6-12.8-172.8-32-25.6-12.8-38.4-38.4-32-64 0 0 0-6.4 6.4-6.4l57.6-102.4c12.8-19.2 32-25.6 51.2-19.2 32 6.4 57.6 12.8 89.6 12.8 19.2 0 44.8 0 64-6.4 19.2-6.4 38.4 6.4 51.2 19.2l57.6 102.4c6.4 19.2 6.4 32 6.4 44.8z m275.2-505.6h-121.6c-19.2 0-38.4-12.8-44.8-32-12.8-51.2-44.8-102.4-83.2-140.8-12.8-12.8-19.2-38.4-6.4-57.6l57.6-102.4c6.4-12.8 19.2-19.2 32-25.6h6.4c12.8 0 19.2 6.4 32 12.8 89.6 76.8 147.2 179.2 172.8 288 0 12.8 0 25.6-6.4 38.4-12.8 12.8-25.6 19.2-38.4 19.2zM25.6 448c6.4-12.8 19.2-19.2 38.4-19.2h121.6c19.2 0 38.4 12.8 44.8 32 6.4 51.2 25.6 89.6 57.6 128 12.8 12.8 19.2 32 6.4 51.2l-57.6 102.4c-6.4 12.8-19.2 25.6-38.4 25.6H192c-6.4 0-19.2-6.4-32-12.8C83.2 684.8 32 588.8 12.8 486.4c0-12.8 0-25.6 12.8-38.4z"  horiz-adv-x="1024" />

    
    <glyph glyph-name="beizhu" unicode="&#58902;" d="M847.448276-22.068966H176.551724a70.62069 70.62069 0 0 0-70.62069 70.62069V719.448276a70.62069 70.62069 0 0 0 70.62069 70.62069h670.896552a70.62069 70.62069 0 0 0 70.62069-70.62069v-670.896552a70.62069 70.62069 0 0 0-70.62069-70.62069zM247.172414 525.241379v-70.620689h529.655172v70.620689z m0-282.482758h529.655172v70.620689H247.172414z"  horiz-adv-x="1024" />

    
    <glyph glyph-name="chakanrizhi" unicode="&#58998;" d="M832 704h-163.2a160 160 0 0 1-313.6 0H192a64 64 0 0 1-64-64v-640a64 64 0 0 1 64-64h640a64 64 0 0 1 64 64V640a64 64 0 0 1-64 64z m-320 32a64 64 0 1 0-64-64 64 64 0 0 0 64 64z m32-608h-256v96h256z m192 224h-448V448h448z"  horiz-adv-x="1024" />

    
    <glyph glyph-name="xuqiu" unicode="&#58901;" d="M892.767 834H131.233A69.4333 69.4333 0 0 1 62 764.767v-761.533A69.4333 69.4333 0 0 1 131.233-66h546.917l273.467 273.467c3.46667 3.45001 6.91667 6.91667 10.3833 6.91667V764.767A69.4333 69.4333 0 0 1 892.767 834ZM515.467 660.917H827.001v-69.2167H515.467v69.2167ZM311.233 269.76700000000005l-110.767 110.767 55.3833 55.3833 55.3833-55.3833 110.767 110.767 41.5333-27.6833-152.301-193.833Zm0 235.385l-110.767 114.233 55.3833 55.3833 55.3833-55.3833 114.233 110.767L467 702.467l-155.767-197.318Zm204.233-86.5333H827.001v-69.2333H515.467v69.2333Zm138.45-429.233c-3.45001-3.46667-6.91667-6.91667-10.3833-6.91667V193.61599999999998a69.4333 69.4333 0 0 0 69.2333 69.2333h214.615L653.917-10.616999999999961Z"  horiz-adv-x="1024" />

    
    <glyph glyph-name="weixin" unicode="&#59147;" d="M713.93792 548.7616c5.1456 0 10.29632 0 14.8736-0.5632-31.4624 143.6416-181.34528 251.79648-361.54368 251.79648C164.75648 799.99488 0 661.98528 0 491.86816c0-99.13856 56.064-187.57632 143.5904-243.90656l-36.61312-106.46528 121.85088 65.90464a430.43328 430.43328 0 0 1 139.01312-23.09632c9.728 0 18.87744 0.5632 28.032 1.1264C385.57184 212.48 379.8528 240.64 379.8528 270.49472c0 153.7792 149.30944 278.26688 334.08512 278.26688zM494.26432 647.90528c29.7472 0 54.3488-23.65952 54.3488-53.51424 0-29.29152-24.02816-53.51424-54.3488-53.51424-29.7472 0-54.3488 23.6544-54.3488 53.51424 0.00512 29.29152 24.60672 53.51424 54.3488 53.51424zM241.98656 540.8768c-29.7472 0-54.3488 23.6544-54.3488 53.51424 0 29.29152 24.02816 53.51424 54.3488 53.51424 30.32064 0 54.3488-23.65952 54.3488-53.51424-0.00512-29.29152-24.6016-53.51424-54.3488-53.51424zM1024 269.93152c0 143.0784-139.01312 259.11296-310.06208 259.11296s-310.06208-116.03968-310.06208-259.11296c0-143.0784 139.01312-259.11296 310.06208-259.11296 36.03968 0 70.36416 5.0688 102.4 14.6432l105.8304-57.45152-30.88896 89.56416C971.94496 104.88832 1024 182.62016 1024 269.93152z m-407.31136 37.18144c-24.02816 0-43.47904 19.1488-43.47904 42.80832s19.45088 42.80832 43.47904 42.80832c24.02304 0 43.47392-19.1488 43.47392-42.80832s-19.44576-42.80832-43.47392-42.80832z m202.51136 0c-24.02816 0-43.47904 19.1488-43.47904 42.80832s19.45088 42.80832 43.47904 42.80832c24.02816 0 43.47904-19.1488 43.47904-42.80832s-19.45088-42.80832-43.47904-42.80832z"  horiz-adv-x="1024" />

    
    <glyph glyph-name="jishuzhichi" unicode="&#58908;" d="M926 326.51v28.58c2.24 130.55-36.08 240.36-111.61 318.24-36.08 37.21-79.56 65.22-130 84.72C676.35 828.42 600.82 884 508.71 884S340.4 828.53 333 758c-50.43-19.5-93.91-47.51-130-84.72C127.47 595.4 89 486.15 91.39 355.6v-35c-19.5-20.06-35-49.76-23.42-92.11a95.31 95.31 0 0 1 59.5-64.66 90.08 90.08 0 0 1 49.2-14.34c36.08-158 166-265.58 336.06-265.58s300 107.58 336.06 266.14c1.12 0 2.24-0.56 3.47-0.56 22.3 0 42.92 8.06 59.5 21.17a94.67 94.67 0 0 1 44.6 58.39c12 45.94-8.07 77.43-30.37 97.37Zm-99.62-86.39a406 406 0 0 0-4.59-60.62c-55.47-89.31-147.13-147.7-261-160.25-8.63 11.43-25.77 18.94-45.83 18.94-28.58 0-51.55-15.46-51.55-35 0-18.94 22.86-35 51.55-35 25.77 0 46.39 12.55 51 29.24a400.42 400.42 0 0 1 104.78 26.34 360.43 360.43 0 0 1 123 82.47 235.8 235.8 0 0 1 16 17.71C768.57-2.6000000000000227 658.08-83.84000000000003 514.43-83.84000000000003h-1.12c-184.9 0-313.65 133.35-313.65 324l-0.56 18.26c0 8.07 1.12 29.81 2.24 50.43 76.76 28 146 135.14 174 184.33 25.78-35 84.72-102.42 175.15-137.38 33.73-13.11 68.13-20.06 101.86-27.45 67-14.35 130.55-28 173.46-84.16l1.68-1.68-1.12-2.35Z"  horiz-adv-x="1024" />
=======
    <glyph glyph-name="iconsmile" unicode="&#58968;" d="M512-212C228.693333-212 0 16.693333 0 300 0 583.306667 228.693333 812 512 812c283.306667 0 512-228.693333 512-512C1024 16.693333 795.306667-212 512-212zM512 743.733333C266.24 743.733333 68.266667 545.76 68.266667 300c0-245.76 197.973333-443.733333 443.733333-443.733333 245.76 0 443.733333 197.973333 443.733333 443.733333C955.733333 545.76 757.76 743.733333 512 743.733333zM672.426667 330.72c-34.133333 0-64.853333 27.306667-64.853333 64.853333s27.306667 64.853333 64.853333 64.853333c34.133333 0 64.853333-27.306667 64.853333-64.853333S706.56 330.72 672.426667 330.72zM351.573333 330.72c-34.133333 0-64.853333 27.306667-64.853333 64.853333s27.306667 64.853333 64.853333 64.853333 64.853333-27.306667 64.853333-64.853333S389.12 330.72 351.573333 330.72zM256 269.28 256 269.28 256 269.28 256 269.28zM331.093333 204.426667c27.306667-75.093333 95.573333-126.293333 180.906667-126.293333s153.6 54.613333 180.906667 126.293333l68.266667 0c-27.306667-109.226667-126.293333-191.146667-245.76-191.146667S293.546667 95.2 266.24 204.426667L331.093333 204.426667z"  horiz-adv-x="1024" />

    
    <glyph glyph-name="iconstar" unicode="&#58891;" d="M1030.259 396.976c-8.322 23.971-29.678 41.543-55.361 45.359l-250.097 37.158-108.738 225.616c-11.414 23.67-35.924 38.841-62.841 38.841s-51.395-15.169-62.841-38.841l-108.707-225.616-250.126-37.158c-25.712-3.815-47.067-21.39-55.33-45.359-8.261-24.061-2.013-50.524 16.132-68.607l183.294-182.932-42.506-253.763c-4.327-25.534 6.758-51.186 28.478-66.144 11.925-8.173 25.952-12.346 39.98-12.346 11.534 0 23.07 2.822 33.582 8.443l218.046 117.331 218.046-117.331c10.514-5.614 22.078-8.443 33.582-8.443 14.059 0 28.023 4.176 40.012 12.346 21.687 14.958 32.771 40.612 28.478 66.144l-42.531 253.763 183.325 182.932c18.143 18.08 24.362 44.546 16.132 68.607zM781.155 192.598c-15.381-15.318-22.347-36.887-18.803-58.062l42.506-253.763-218.046 117.331c-10.484 5.614-22.047 8.443-33.582 8.443-11.534 0-23.102-2.822-33.553-8.443l-218.078-117.331 42.531 253.763c3.543 21.174-3.424 42.746-18.803 58.062l-183.263 182.901 250.097 37.247c22.829 3.396 42.506 17.665 52.358 38.059l108.707 225.556 108.738-225.556c9.824-20.395 29.469-34.665 52.326-38.059l250.126-37.247-183.263-182.901z"  horiz-adv-x="1135" />

    
    <glyph glyph-name="xuanzhong" unicode="&#59194;" d="M309.362348 408.741497l114.738207-228.100068c0 0 186.467879 463.603757 480.509798 618.149599-7.16212-110.36562-35.846416-206.02633 14.325263-323.794547C789.87317 445.553914 524.5135 114.388493 438.424796-47.491385 316.524468 107.053434 173.066149 224.788905 72.687998 261.565507L309.362348 408.741497z"  horiz-adv-x="1024" />

    
    <glyph glyph-name="iconmsgfill" unicode="&#58959;" d="M891.131 640L587.276 374.57899999999995C565.817 355.62300000000004 538.919 346.158 512 346.158 485.081 346.158 458.184 355.62300000000004 436.702 374.57899999999995L132.869 640C123.426 648.329 122.539 662.71 130.845 672.131 139.218 681.552 153.6 682.394 162.953 674.133L466.83 408.712C492.612 385.957 531.434 386.002 557.147 408.69L861.047 674.133C870.446 682.394 884.827 681.552 893.155 672.131 901.461 662.71 900.574 648.329 891.131 640L891.131 640ZM967.111 634.3109999999999C967.111 697.139 916.161 748.0889999999999 853.333 748.0889999999999L170.667 748.0889999999999C107.839 748.0889999999999 56.889 697.139 56.889 634.3109999999999L56.889 133.68899999999996C56.889 70.86099999999999 107.839 19.910999999999944 170.667 19.910999999999944L853.333 19.910999999999944C916.161 19.910999999999944 967.111 70.86099999999999 967.111 133.68899999999996L967.111 634.3109999999999Z"  horiz-adv-x="1024" />

    
    <glyph glyph-name="ricon-add-border" unicode="&#58938;" d="M860.503 847.0614L151.918 847.0614c-51.2646 0-92.8231-41.5585-92.8231-92.8231l0-708.584c0-51.2646 41.5585-92.8231 92.8231-92.8231L860.502-47.16899999999998c51.2646 0 92.8231 41.5585 92.8231 92.8231L953.325 754.238C953.325 805.5029 911.768 847.0614 860.503 847.0614ZM857.941 81.755c0-14.4644-11.9624-26.1905-26.7185-26.1905L178.81 55.565000000000055c-14.7561 0-26.7185 11.7261-26.7185 26.1905L152.092 721.269c0 14.4644 11.9624 26.1905 26.7185 26.1905l652.412 0c14.7561 0 26.7185-11.7261 26.7185-26.1905L857.941 81.755 857.941 81.755ZM570.749 655.595l-127.913 0 0-192.273L249.772 463.322l0-126.751 193.064 0 0-189.141 127.913 0L570.749 336.571l190.676 0L761.425 463.322 570.749 463.322 570.749 655.595Z"  horiz-adv-x="1024" />

    
    <glyph glyph-name="gengduo1" unicode="&#58903;" d="M512 32.638976m-109.441024 0a53.438 53.438 0 1 0 218.882048 0 53.438 53.438 0 1 0-218.882048 0ZM512 378.238976m-109.441024 0a53.438 53.438 0 1 0 218.882048 0 53.438 53.438 0 1 0-218.882048 0ZM512 735.358976m-109.441024 0a53.438 53.438 0 1 0 218.882048 0 53.438 53.438 0 1 0-218.882048 0Z"  horiz-adv-x="1024" />

    
    <glyph glyph-name="icondown2" unicode="&#58893;" d="M587.469344-124.934175 587.469344-124.934175c0 0 174.668135 16.424064 71.253834 337.989851l266.886443 0c0 0 1.2689-0.090051 3.462868-0.090051 13.739932 0 63.599504 3.485381 63.597457 54.082756 0 0 0 84.503603-99.205443 368.522238 0 0-30.728862 83.323731-68.469418 83.323731l-400.992767 0c-27.951609 0-99.205443-15.855106-99.205443-59.875692l0-445.962981c0 0 198.395536-123.228579 198.395536-280.486182C528.785803-75.648678 513.438257-124.934175 587.469344-124.934175M233.521033 206.686618 233.521033 206.686618c1.961678 0 42.037419 0.419556 42.037419 34.55091L275.558451 699.717591c0 0 0.267083 19.175735-29.605272 19.175735l-143.406131 0c0 0-35.31225 0-35.31225-28.995381L33.017486 234.330212c0 0 0.525979-27.644617 34.742269-27.644617l165.686577 0C233.446331 206.686618 233.471914 206.686618 233.521033 206.686618"  horiz-adv-x="1024" />

    
    <glyph glyph-name="iconup2" unicode="&#58895;" d="M590.169849 782.99732c-74.577532 0-59.116399-49.28652-64.750723-57.504692 0-157.257603-199.86398-280.485159-199.86398-280.485159l0-445.962981c0-44.020586 71.780837-59.875692 99.93813-59.875692l403.959332 0c38.020942 0 68.975954 83.323731 68.975954 83.323731 99.9412 284.018635 99.9412 368.522238 99.9412 368.522238 0.002047 50.596352-50.227961 54.081733-64.070224 54.081733-2.210341 0-3.485381-0.089028-3.485381-0.089028L661.951709 445.007469C766.132466 766.574279 590.169849 782.99732 590.169849 782.99732L590.169849 782.99732M233.603921 451.376527c-0.050142 0-0.075725 0-0.075725 0L66.615699 451.376527c-34.470069 0-34.999119-27.643594-34.999119-27.643594L66.086649-31.8348c0-28.995381 35.574217-28.995381 35.574217-28.995381l144.467299 0c30.092365 0 29.824259 19.175735 29.824259 19.175735L275.952424 416.82664C275.951401 450.957994 235.579925 451.376527 233.603921 451.376527L233.603921 451.376527"  horiz-adv-x="1024" />

    
    <glyph glyph-name="tapd" unicode="&#58888;" d="M1109.983 613.886l-68.316 216.345-714.501-216.345 65.473-219.189 250.497 76.851 133.786-446.915 219.189 65.473-136.643 446.915zM247.454-103.455h398.526l-398.526 666.112zM247.454 864.393v-193.568l666.112 193.568zM1195.374 864.393l-179.338-967.851h199.269v967.851z"  horiz-adv-x="1459" />

    
    <glyph glyph-name="icon_enlarge" unicode="&#58925;" d="M879.616-25.6H675.84c-22.528 0-40.96 18.432-40.96 40.96s18.432 40.96 40.96 40.96h107.52l-196.608 196.608 57.856 57.856 195.584-195.584-1.024 104.96c0 22.528 18.432 40.96 40.96 40.96s40.96-18.432 40.96-40.96v-204.8c0-12.288-5.12-22.016-12.8-28.672-7.168-7.68-17.408-12.288-28.672-12.288z m1.024 532.48c-22.528 0-40.96 18.432-40.96 40.96l1.024 104.96-195.584-195.584-57.856 57.856 196.608 196.608h-107.52c-22.528 0-40.96 18.432-40.96 40.96s18.432 40.96 40.96 40.96h203.776c11.264 0 21.504-4.608 29.184-12.288 7.68-6.656 12.8-16.384 12.8-28.672v-204.8c-0.512-22.528-18.944-40.96-41.472-40.96z m-532.48-450.56c22.528 0 40.96-18.432 40.96-40.96s-18.432-40.96-40.96-40.96h-203.776c-11.264 0-21.504 4.608-29.184 12.288-7.68 6.656-12.8 16.384-12.8 28.672v204.8c0 22.528 18.432 40.96 40.96 40.96s40.96-18.432 40.96-40.96l-1.024-104.96 195.584 195.584 57.856-57.856-196.608-196.608h108.032z m31.232 400.896l-195.584 195.584 1.024-104.96c0-22.528-18.432-40.96-40.96-40.96s-40.96 18.432-40.96 40.96v204.8c0 12.288 5.12 22.016 12.8 28.672 7.68 7.68 17.92 12.288 29.184 12.288h203.776c22.528 0 40.96-18.432 40.96-40.96s-18.432-40.96-40.96-40.96h-107.52l196.608-196.608-58.368-57.856z"  horiz-adv-x="1024" />

    
    <glyph glyph-name="huiyi" unicode="&#58881;" d="M513.284 889.295c-280.395 0-507.624-227.228-507.624-507.624 0-280.333 227.229-507.624 507.624-507.624 280.396 0 507.624 227.291 507.624 507.624 0.002 280.396-227.228 507.624-507.624 507.624zM514.464 112.119c-94.808-1.61-190.979 24.973-191.972 88.489-1.673 110.794 77.273 202.812 177.78 210.126-52.609 4.648-94.622 51.618-95.49 110.114-0.992 62.337 44.741 113.645 101.872 114.637 57.009 1.177 104.228-48.829 105.281-110.794 0.805-58.744-39.845-107.015-92.081-113.523 100.694-3.841 182.303-92.948 184.040-203.868 0.804-63.454-94.499-93.32-189.429-95.181z"  horiz-adv-x="1024" />

    
    <glyph glyph-name="xiangqing" unicode="&#58883;" d="M511.997 805.875c-232.993 0-421.872-188.882-421.872-421.878s188.88-421.872 421.872-421.872c232.997 0 421.878 188.878 421.878 421.872s-188.88 421.878-421.878 421.878v0zM507.432 124.398c-17.438-9.743-31.702-14.617-42.765-14.617-9.697 0-17.379 2.983-23.051 8.932-5.674 5.952-8.51 14.211-8.51 24.766 0 33.826 20.76 116.51 62.285 248.042 1.942 6.227 2.911 11.778 2.911 16.644 0 5.408-2.494 8.119-7.476 8.119-5.542 0-11.832-2.17-18.888-6.494-7.062-4.332-22.781-18.136-47.132-41.411l-18.274 13.804c27.649 29.767 52.88 50.952 75.686 63.535 22.816 12.583 42.233 18.877 58.268 18.877 8.853 0 15.626-1.896 20.326-5.679 4.695-3.794 7.052-8.932 7.052-15.428 0-7.852-8.971-41.141-26.923-99.871-29.258-96.074-43.89-153.999-43.89-173.752 0-3.79 0.964-6.971 2.907-9.539 1.934-2.573 4.009-3.851 6.229-3.851 8.857 0 31.558 16.774 68.097 50.337l16.195-15.427c-37.934-34.912-65.609-57.243-83.049-66.987v0zM604.805 576.029c-8.445-9.073-17.924-13.597-28.444-13.597-8.303 0-15.225 2.842-20.763 8.526-5.537 5.678-8.303 13.12-8.303 22.328 0 12.175 4.007 22.53 12.041 31.057 8.023 8.522 17.578 12.782 28.656 12.782 8.572 0 15.635-2.776 21.171-8.318 5.537-5.554 8.303-12.656 8.303-21.313 0.004-11.911-4.218-22.394-12.662-31.465v0zM604.805 576.029z"  horiz-adv-x="1024" />

    
    <glyph glyph-name="daochu" unicode="&#58984;" d="M848.2 163.8c0-30.7-25.1-55.5-56-55.5H232.1c-30.9 0-56 24.8-56 55.5V441.2c0 21.3 12.5 39.2 30.2 48.5 16.7 42.9 39.8 82.7 68.4 117.9h-42.6c-92.8 0-168-74.5-168-166.4v-277.4c0-91.9 75.2-166.4 168-166.4h560.1c92.8 0 168 74.5 168 166.4V385.7l-112-83.2v-138.7zM624.1 441.2v-55.5c0-21 12-40.2 31-49.6 7.9-3.9 16.5-5.9 25-5.9 11.9 0 23.7 3.8 33.6 11.1l224.1 166.4c14.1 10.5 22.4 26.9 22.4 44.4s-8.3 33.9-22.4 44.4L713.7 763c-9.9 7.3-21.7 11.1-33.6 11.1-8.5 0-17.1-1.9-25-5.9-19-9.4-31-28.6-31-49.6v-55.5c-185.6 0-336.1-149-336.1-332.9 0-39 7.1-76.2 19.5-110.9 46.3 129.2 170.4 221.9 316.6 221.9z"  horiz-adv-x="1024" />

    
    <glyph glyph-name="partner-icon-ok" unicode="&#58904;" d="M408.7749 75.772638L819.187328 485.877871l-72.498004 72.446805-337.914424-336.37845-131.479431 132.605812L204.797466 282.105233l203.977434-206.332595zM511.992397 792.919205a48.587998 48.587998 0 0 1-35.634612-14.745357 48.4856 48.4856 0 0 1-14.745357-35.634612c0-13.874971 4.915119-26.162768 14.745357-36.812192A46.744829 46.744829 0 0 1 511.992397 689.701708a46.744829 46.744829 0 0 1 35.634612 15.974136c9.830238 10.649424 14.745357 22.937222 14.745357 36.863392a48.4856 48.4856 0 0 1-14.745357 35.583413A48.587998 48.587998 0 0 1 511.992397 792.868006z m357.5749 0c27.85234 0 52.018342-10.239831 72.498004-30.719493 20.479662-20.479662 30.719493-44.594464 30.719493-72.446805v-714.586609c0-27.801141-10.239831-51.967143-30.719493-72.395606-20.479662-20.479662-44.645663-30.719493-72.498004-30.719493H154.417497C126.565156-128 102.399155-117.760169 81.919493-97.280507c-20.479662 20.479662-30.719493 44.543265-30.719493 72.395606V689.701708c0 27.85234 10.239831 51.967143 30.719493 72.446805 20.479662 20.479662 44.645663 30.719493 72.498004 30.719493h213.807672A154.723847 154.723847 0 0 0 422.905867 867.106781 145.098406 145.098406 0 0 0 511.992397 895.983104c33.586646 0 63.282156-9.625441 89.08653-28.876323 25.804374-19.199683 44.031273-43.980074 54.680698-74.238775h213.807672z"  horiz-adv-x="1024" />

    
    <glyph glyph-name="xingxing" unicode="&#59006;" d="M812.8-44.8c6.4-32-12.8-44.8-38.4-32l-217.6 108.8c-25.6 12.8-70.4 12.8-96 0l-217.6-108.8c-25.6-12.8-44.8 0-38.4 32l38.4 243.2c6.4 32-6.4 70.4-32 89.6L44.8 467.2C19.2 486.4 25.6 512 57.6 512l243.2 38.4c32 6.4 64 32 76.8 57.6l115.2 217.6c12.8 25.6 38.4 25.6 51.2 0l108.8-217.6c12.8-25.6 51.2-51.2 76.8-57.6l236.8-38.4c32-6.4 38.4-25.6 12.8-44.8l-172.8-172.8c-19.2-19.2-32-64-32-89.6l38.4-249.6z"  horiz-adv-x="1024" />

    
    <glyph glyph-name="chuizi" unicode="&#58929;" d="M970.24 63.488l-224.256 224.256c-10.24 10.24-26.112 10.24-36.352 0l-25.088-25.088-99.84 99.84L683.008 460.8c22.016-15.36 52.224-12.8 71.68 6.656l32.768 32.768c22.016 22.016 22.016 57.856 0 79.872L548.352 819.2c-22.016 22.016-57.856 22.016-79.872 0l-32.768-32.768c-20.992-20.992-22.016-53.76-3.584-75.776L167.936 445.44c-22.016 18.432-55.296 17.408-75.776-3.584L59.392 409.6c-22.016-22.016-22.016-57.856 0-79.872l239.104-239.104c22.016-22.016 57.856-22.016 79.872 0l32.768 32.768c19.456 19.456 21.504 49.664 6.656 71.68l131.072 131.072 99.84-99.84-17.92-17.92c-10.24-10.24-10.24-26.112 0-36.352l224.256-224.256c10.24-10.24 26.112-10.24 36.352 0l79.872 79.872c9.216 9.728 9.216 25.6-1.024 35.84z"  horiz-adv-x="1024" />

    
    <glyph glyph-name="ban-copy-copy" unicode="&#58884;" d="M222.98086874302038 585.5668479984107L713.5668479984103 94.98086874302021C725.2982518501694 83.24946489126069 744.4950945166851 83.24946489126069 756.2264983684445 94.98086874302021L801.0169982744612 139.77563461407408C812.7484021262206 151.50703846583326 812.7484021262206 170.70388113234867 801.0169982744615 182.43528498410797L310.43315200158975 673.0191312569798C298.70174814983056 684.7505351087393 279.5049054833151 684.7505351087393 267.7735016315556 673.0191312569798L222.98086874302015 628.2264983684445C211.24946489126086 616.4950945166853 211.24946489126086 597.29825185017 222.98086874302038 585.5668479984107M771.2196891287388 643.2196891287387C918.3811685100932 496.0582097473841 918.3811685100932 257.4602433739145 771.2196891287384 110.29876399256045 624.0574856700401-36.863439466137606 385.4602433739151-36.86271538879373 238.29876399256068 110.29876399256068 91.13728461120627 257.4602433739151 91.13656053386256 496.0574856700409 238.29876399256074 643.2196891287388 385.4602433739152 790.3811685100932 624.0582097473847 790.3811685100931 771.2196891287388 643.2196891287387M178.9244217898883 50.92442178988904C358.8786400007163-129.02979642093896 650.6405371979265-129.0290723435951 830.5940313314106 50.92442178988824 1010.5475254648945 230.87791592337214 1010.5482495422386 522.639813120583 830.5940313314109 702.5940313314109 650.6412612752714 882.5468013875508 358.8779159233725 882.5475254648945 178.92442178988892 702.5940313314111-1.0290723435947484 522.6405371979275-1.0283482662512142 230.87719184602884 178.9244217898883 50.92442178988904"  horiz-adv-x="1024" />

    
    <glyph glyph-name="TAPD__icon" unicode="&#59063;" d="M635.615 475.241l195.474 52.1117-47.7215 184.032L198.191 544.191l47.7215-184.032 203.556 65.2089 98.8078-383.559 186.14 46.5329ZM140.708 809.77c-34.0349 0-61.8819-27.847-61.8819-61.8819V611.895c71.0377 20.0502 505.964 142.732 707.661 197.874H140.708ZM926.114 792.431c-11.091-84.8804-96.7847-739.638-103.896-762.409-7.60466-24.3498-53.034-41.9604-53.034-41.9604s-93.6246-24.6707-177.029-44.638h291.135c34.0349 0 61.8819 27.847 61.8819 61.8819V747.888c0 17.4524-7.33396 33.2654-19.058 44.543ZM78.827 5.30600000000004c0-34.0349 27.847-61.8819 61.8819-61.8819h239.507L78.827 467.84v-462.534Z"  horiz-adv-x="1024" />

    
    <glyph glyph-name="arrfill_d-copy-copy" unicode="&#58909;" d="M218.70299999999958-12.42199999999957l7.958078640513122e-13 799.4199999999998c4.973799150320701e-14 44.23899999999999 35.50300000000009 80.02299999999997 79.74300000000008 80.02199999999992 20.57-1.7763568394002505e-14 39.16999999999999-7.8920000000000385 53.260999999999996-20.56900000000005l527.5029999999998-395.33900000000045c34.94099999999998-26.487000000000027 42.270999999999916-76.36600000000004 15.780999999999885-111.58499999999998-4.510000000000005-6.200999999999994-9.868000000000004-11.554999999999994-15.782000000000009-15.781999999999986l-533.1310000000003-399.85699999999963c-34.94500000000002-26.198999999999984-85.09-19.155999999999935-111.303 16.064000000000107-10.990999999999987 14.375000000000007-16.063999999999968 30.997000000000007-16.063999999999943 47.619v0z"  horiz-adv-x="1024" />

    
    <glyph glyph-name="fuzhi1" unicode="&#58928;" d="M192 896h640c106 0 192-86 192-192v-640c0-106-86-192-192-192H192C86-128 0-42 0 64V704C0 810 86 896 192 896zM572.038 437.562c-3.8 3.8-7.8 7.2-12.1 10.5-9.2 9-23.9 9.1-33.3 0.4-9.4-8.7-10.2-23.3-1.9-33 1.7-2 3.7-3.8 5.9-5.1 2.3-1.9 4.5-3.7 6.6-5.8l2-2c24.9-24.8 17.5-67.5-7.5-92.3l-106.5-105.9c-25-24.8-65.5-24.8-90.5 0l-2 2c-25 24.9-25 65.1 0 90l47.1 46.8c8.8 6.8 12.2 18.5 8.5 28.9-3.7 10.5-13.6 17.5-24.8 17.4-5.2 0-10.4-1.6-14.7-4.5l-0.1 0.1-0.5-0.5c-1.9-1.3-3.5-2.9-5-4.6l-48.9-45.5c-46-46-46-120.3 0-166.3l2-2c46.2-45.7 120.9-45.7 167.1 0l106.5 106c46 45.7 50 117.8 4 163.5l-1.9 1.9zM729.538 599.562l-2 2c-46.3 46-121.2 46-167.5 0l-106.7-106.7c-46.1-46-48.6-112.4-2.5-158.5l2-1.9c2.1-2.1 4.2-4 6.5-5.9 1.6-1.8 3.5-3.3 5.6-4.5h0.1c8.7-5 19.6-3.7 26.9 3.1 7.3 6.8 9.3 17.6 5 26.5-3 6.7-8.6 10.9-12.5 14.7l-1.9 1.9c-25 25-15.5 61.3 9.5 86.3l106.5 106.6c25 25 65.6 25 90.7 0l2-2c25-25 25-65.6 0-90.6l-47-47c-11.9-8-15-24.2-7-36 8-11.9 24.2-15 36.1-6.9 0-0.1 0-0.1 0.1-0.2l0.7 0.7c2.2 1.5 4.2 3.3 5.9 5.4l49.5 45.7c46 46.3 46.1 121 0 167.3z"  horiz-adv-x="1024" />

    
    <glyph glyph-name="icon_file" unicode="&#58947;" d="M853.333333 560.64a52.48 52.48 0 0 1-34.133333 13.653333h-344.746667a49.92 49.92 0 0 1-39.68-20.48l-42.666666-49.92a30.293333 30.293333 0 0 0-23.893334-12.373333H204.8a52.48 52.48 0 0 1-34.133333-13.653333V640a37.12 37.12 0 0 0 34.133333 42.666667h162.56a29.013333 29.013333 0 0 0 23.893333-12.373334l42.666667-49.92a53.76 53.76 0 0 1 39.68-20.48h345.6a34.986667 34.986667 0 0 0 34.133333-39.253333z m-34.133333-13.653333h-344.746667a29.013333 29.013333 0 0 1-23.893333-12.373334l-42.666667-49.92a53.76 53.76 0 0 0-39.68-20.48H204.8a37.12 37.12 0 0 1-34.133333-42.666666v-298.666667a37.12 37.12 0 0 1 34.133333-42.666667h614.4a37.12 37.12 0 0 1 34.133333 42.666667V506.453333a37.12 37.12 0 0 1-34.133333 40.96z"  horiz-adv-x="1024" />

    
    <glyph glyph-name="weibiaoti-" unicode="&#58948;" d="M809.6 220.79999999999995c-41.6 0-80-19.2-105.6-48l-265.6 166.4c9.6 22.4 12.8 44.8 12.8 70.4 0 28.8-6.4 54.4-16 76.8L694.4 640c41.6-51.2 118.4-60.8 169.6-16 51.2 41.6 57.6 118.4 16 169.6s-118.4 57.6-169.6 16c-35.2-28.8-48-70.4-41.6-112L400 544c-35.2 38.4-83.2 60.8-140.8 60.8-105.6 0-192-86.4-192-192s86.4-192 192-192c57.6 0 108.8 25.6 144 67.2l268.8-169.6c-3.2-12.8-6.4-25.6-6.4-41.6 0-80 64-144 144-144s144 64 144 144-64 144-144 144z"  horiz-adv-x="1024" />
>>>>>>> 41772733ca44d6706986c1fb742036e1c412ca78

    
    <glyph glyph-name="tuozhuai" unicode="&#58965;" d="M76.8 358.4a25.6 25.6 0 0 0 0 51.2h873.3184a25.6 25.6 0 1 0 0-51.2H76.8z m514.6112-242.5856a25.6 25.6 0 0 0 21.5552 11.8272L948.5056 128a25.6 25.6 0 1 0 0.0768-51.2l-321.536-0.3328-90.368-141.824a25.6 25.6 0 0 0-42.5216-0.9728L393.5232 76.8H76.8a25.6 25.6 0 1 0 0 51.2h329.984a25.6 25.6 0 0 0 20.9664-10.88l86.272-122.7264 77.3888 121.4208zM427.7504 650.4704a25.6 25.6 0 0 0-20.9408-10.88H76.8a25.6 25.6 0 1 0 0 51.2h316.7232l100.608 143.1296a25.6 25.6 0 0 0 42.5472-0.9728l90.368-141.824 321.536-0.3328a25.6 25.6 0 1 0-0.0768-51.2l-335.5392 0.3584a25.6 25.6 0 0 0-21.5552 11.8272L514.048 773.1968 427.7504 650.496z"  horiz-adv-x="1024" />

    
<<<<<<< HEAD
    <glyph glyph-name="wenjian" unicode="&#59030;" d="M773 564.2L601.6 753c-8 8.8-18.7 13.7-29.9 13.7l-269.3 0.7s-64.2-4.8-64.2-71.9v-623s2.9-71.9 64.2-71.9h419.2s64.2 3.4 64.2 71.9V530c0.1 12.8-4.6 25.1-12.8 34.2zM602.5 686l112.3-124.7h-90.9s-21.5 1.1-21.5 24c0.1 22.9 0.1 100.7 0.1 100.7z m140.6-613.4c0-24.1-21.4-24-21.4-24H302.4c-20 0-21.4 24-21.4 24v623c0 22.3 21.4 24 21.4 24h257.3v-134.1c0-66.5 64.2-71.9 64.2-71.9h119.2v-441z m-115 130.1H396.9c-11.8 0-21.4-10.8-21.4-24s9.6-24 21.4-24h231.2c11.8 0 21.4 10.8 21.4 24 0.1 13.2-9.6 24-21.4 24z m-252.6 218c0-13.3 9.6-24 21.4-24h231.2c11.8 0 21.4 10.8 21.4 24s-9.6 24-21.4 24H396.9c-11.8-0.1-21.4-10.8-21.4-24z m252.6-97H396.9c-11.8 0-21.4-10.8-21.4-24s9.6-24 21.4-24h231.2c11.8 0 21.4 10.8 21.4 24 0.1 13.2-9.6 24-21.4 24z"  horiz-adv-x="1024" />

    
    <glyph glyph-name="yidu" unicode="&#58897;" d="M662.7328 343.8592a90.3168 90.3168 0 0 1-97.4848 0l-93.696-62.8736-466.944-314.1632C21.8112-88.9856 83.2512-128 153.6-128h921.6c70.0416 0.3072 131.072 39.3216 148.2752 94.8224l-466.944 314.1632-93.7984 62.8736z m-93.5936 61.5424a90.624 90.624 0 0 0 93.5936-0.6144l92.9792-62.8736 396.288 265.216L691.2 879.2064a183.6032 183.6032 0 0 1-153.6 0L76.8 607.1296l399.36-264.4992 92.9792 62.7712z m633.5488 164.6592L804.864 311.808 1228.8 25.9072V500.3264c0 24.7808-9.216 49.152-26.112 69.632z m-1176.576 0A110.1824 110.1824 0 0 1 0 500.3264v-474.4192l423.936 285.9008L26.112 570.0608z"  horiz-adv-x="1228" />

    
    <glyph glyph-name="-yiduweidu" unicode="&#58898;" d="M1316.205599 778.201912a193.875255 193.875255 0 0 0-36.041349-110.844148 351.913169 351.913169 0 0 0-89.627354-90.375382q-276.158334-191.767176-343.616859-238.756935l-31.28117-22.372837c-15.912595-11.424428-29.105089-20.808779-39.645484-27.949046s-23.392875-14.96056-38.149428-24.072901a215.704072 215.704072 0 0 0-42.093575-19.720738 116.216349 116.216349 0 0 0-36.721374-6.800254h-1.564059a114.652291 114.652291 0 0 0-36.721374 6.800254 222.436324 222.436324 0 0 0-42.093575 19.720738q-19.448728 11.424428-38.149428 24.072901-20.400763 13.600509-39.645483 27.949046c-15.980598 11.424428-26.316985 19.040713-31.281171 22.372837q-66.574491 47.125764-192.447202 134.169021C193.347579 530.400639 142.889691 565.081936 126.501078 577.118387A362.793576 362.793576 0 0 0 40.885874 661.91756a170.346375 170.346375 0 0 0-40.801527 99.963741A148.721565 148.721565 0 0 0 30.61749 857.356874a104.655916 104.655916 0 0 0 86.975254 38.48944h1081.240462a113.904263 113.904263 0 0 0 82.487087-34.681298 112.136196 112.136196 0 0 0 34.885306-82.963104z m0-163.54612v-618.279138a124.172647 124.172647 0 0 0-34.341285-87.859287 109.82411 109.82411 0 0 0-82.895102-36.449364H117.796752a110.36813 110.36813 0 0 0-82.895102 36.381361A122.404581 122.404581 0 0 0 0.084347-3.759351V614.655792a405.63518 405.63518 0 0 1 74.190776-68.002545Q340.097071 355.226083 439.584794 278.1792c27.949046-21.760814 50.457888-38.897456 68.002545-50.933906a393.734734 393.734734 0 0 1 69.430598-37.265395 201.21953 201.21953 0 0 1 80.787023-19.040712h1.632061a204.007634 204.007634 0 0 1 80.787023 19.040712A424.811897 424.811897 0 0 1 809.31463 227.245294c17.272646 12.03645 39.985496 29.173092 68.002545 50.933906q124.78467 95.747583 365.58168 268.610052a431.816159 431.816159 0 0 1 73.306744 67.86654z"  horiz-adv-x="1317" />

    
    <glyph glyph-name="kaishi1" unicode="&#58900;" d="M511.091-64.558c-60.438 0-119.086 11.844-174.313 35.203-53.328 22.556-101.213 54.839-142.329 95.954-41.115 41.114-73.398 89.001-95.954 142.328-23.359 55.228-35.204 113.875-35.204 174.314 0 60.438 11.844 119.086 35.204 174.313 22.555 53.328 54.839 101.213 95.954 142.329 41.115 41.115 89.001 73.398 142.329 95.954 55.228 23.359 113.875 35.204 174.313 35.204 60.439 0 119.086-11.844 174.314-35.204 53.327-22.555 101.214-54.839 142.328-95.954 41.115-41.115 73.398-89.001 95.954-142.329 23.359-55.228 35.203-113.875 35.203-174.313 0-60.439-11.844-119.086-35.203-174.314-22.556-53.327-54.839-101.214-95.954-142.328-41.114-41.115-89.001-73.398-142.328-95.954-55.227-23.359-113.875-35.203-174.314-35.203z m0 831.599c-211.627 0-383.799-172.172-383.799-383.799s172.172-383.799 383.799-383.799S894.89 171.615 894.89 383.242 722.719 767.041 511.091 767.041zM383.908 576.004v-383.887l315.949 193.775z"  horiz-adv-x="1024" />

    
    <glyph glyph-name="zanting1" unicode="&#58899;" d="M512 768a382.6 382.6 0 1 0-149.45-30.15A381.54 381.54 0 0 0 512 768m0 64C264.58 832 64 631.4200000000001 64 384s200.58-448 448-448 448 200.58 448 448S759.42 832 512 832zM384 576v-384 384m0 64a64 64 0 0 1-64-64v-384a64 64 0 0 1 64-64 64 64 0 0 1 64 64V576a64 64 0 0 1-64 64zM640 576v-384 384m0 64a64 64 0 0 1-64-64v-384a64 64 0 0 1 64-64 64 64 0 0 1 64 64V576a64 64 0 0 1-64 64z"  horiz-adv-x="1024" />

    
    <glyph glyph-name="daochu" unicode="&#58984;" d="M848.2 163.8c0-30.7-25.1-55.5-56-55.5H232.1c-30.9 0-56 24.8-56 55.5V441.2c0 21.3 12.5 39.2 30.2 48.5 16.7 42.9 39.8 82.7 68.4 117.9h-42.6c-92.8 0-168-74.5-168-166.4v-277.4c0-91.9 75.2-166.4 168-166.4h560.1c92.8 0 168 74.5 168 166.4V385.7l-112-83.2v-138.7zM624.1 441.2v-55.5c0-21 12-40.2 31-49.6 7.9-3.9 16.5-5.9 25-5.9 11.9 0 23.7 3.8 33.6 11.1l224.1 166.4c14.1 10.5 22.4 26.9 22.4 44.4s-8.3 33.9-22.4 44.4L713.7 763c-9.9 7.3-21.7 11.1-33.6 11.1-8.5 0-17.1-1.9-25-5.9-19-9.4-31-28.6-31-49.6v-55.5c-185.6 0-336.1-149-336.1-332.9 0-39 7.1-76.2 19.5-110.9 46.3 129.2 170.4 221.9 316.6 221.9z"  horiz-adv-x="1024" />

    
    <glyph glyph-name="guolv" unicode="&#58960;" d="M426.666667 341.333333L158.165333 609.834667A42.666667 42.666667 0 0 0 188.330667 682.666667h647.338666a42.666667 42.666667 0 0 0 30.165334-72.832L597.333333 341.333333v-341.333333l-170.666666 85.333333v256z"  horiz-adv-x="1024" />

    
    <glyph glyph-name="xingxing" unicode="&#59006;" d="M812.8-44.8c6.4-32-12.8-44.8-38.4-32l-217.6 108.8c-25.6 12.8-70.4 12.8-96 0l-217.6-108.8c-25.6-12.8-44.8 0-38.4 32l38.4 243.2c6.4 32-6.4 70.4-32 89.6L44.8 467.2C19.2 486.4 25.6 512 57.6 512l243.2 38.4c32 6.4 64 32 76.8 57.6l115.2 217.6c12.8 25.6 38.4 25.6 51.2 0l108.8-217.6c12.8-25.6 51.2-51.2 76.8-57.6l236.8-38.4c32-6.4 38.4-25.6 12.8-44.8l-172.8-172.8c-19.2-19.2-32-64-32-89.6l38.4-249.6z"  horiz-adv-x="1024" />

    
    <glyph glyph-name="chuizi" unicode="&#58929;" d="M970.24 63.488l-224.256 224.256c-10.24 10.24-26.112 10.24-36.352 0l-25.088-25.088-99.84 99.84L683.008 460.8c22.016-15.36 52.224-12.8 71.68 6.656l32.768 32.768c22.016 22.016 22.016 57.856 0 79.872L548.352 819.2c-22.016 22.016-57.856 22.016-79.872 0l-32.768-32.768c-20.992-20.992-22.016-53.76-3.584-75.776L167.936 445.44c-22.016 18.432-55.296 17.408-75.776-3.584L59.392 409.6c-22.016-22.016-22.016-57.856 0-79.872l239.104-239.104c22.016-22.016 57.856-22.016 79.872 0l32.768 32.768c19.456 19.456 21.504 49.664 6.656 71.68l131.072 131.072 99.84-99.84-17.92-17.92c-10.24-10.24-10.24-26.112 0-36.352l224.256-224.256c10.24-10.24 26.112-10.24 36.352 0l79.872 79.872c9.216 9.728 9.216 25.6-1.024 35.84z"  horiz-adv-x="1024" />

    
    <glyph glyph-name="zhuanfa1" unicode="&#58961;" d="M421.76 561.28V768L50.56 451.84a48.64 48.64 0 0 1 0-76.8l371.2-316.16V265.6c209.92 0 405.12-44.16 570.24-265.6-74.88 413.44-389.76 561.28-570.24 561.28"  horiz-adv-x="1024" />

    
    <glyph glyph-name="weibiaoti-" unicode="&#58948;" d="M809.6 220.79999999999995c-41.6 0-80-19.2-105.6-48l-265.6 166.4c9.6 22.4 12.8 44.8 12.8 70.4 0 28.8-6.4 54.4-16 76.8L694.4 640c41.6-51.2 118.4-60.8 169.6-16 51.2 41.6 57.6 118.4 16 169.6s-118.4 57.6-169.6 16c-35.2-28.8-48-70.4-41.6-112L400 544c-35.2 38.4-83.2 60.8-140.8 60.8-105.6 0-192-86.4-192-192s86.4-192 192-192c57.6 0 108.8 25.6 144 67.2l268.8-169.6c-3.2-12.8-6.4-25.6-6.4-41.6 0-80 64-144 144-144s144 64 144 144-64 144-144 144z"  horiz-adv-x="1024" />
=======
    <glyph glyph-name="minus-square" unicode="&#59191;" d="M848 832H176c-61.6 0-112-50.4-112-112v-672c0-61.6 50.4-112 112-112h672c61.6 0 112 50.4 112 112V720c0 61.6-50.4 112-112 112zM736 328H288c-31 0-56 25-56 56s25 56 56 56h448c31 0 56-25 56-56s-25-56-56-56z"  horiz-adv-x="1024" />

    
    <glyph glyph-name="plus-square" unicode="&#59190;" d="M848 832H176c-61.6 0-112-50.4-112-112v-672c0-61.6 50.4-112 112-112h672c61.6 0 112 50.4 112 112V720c0 61.6-50.4 112-112 112zM736 328H568v-168c0-31-25.1-56-56-56s-56 25-56 56V328H288c-30.9 0-56 25-56 56s25.1 56 56 56h168V608c0 31 25.1 56 56 56s56-25 56-56v-168h168c30.9 0 56-25 56-56s-25.1-56-56-56z"  horiz-adv-x="1024" />

    
    <glyph glyph-name="icon-kanban-1" unicode="&#59020;" d="M917-66H107c-28.125 0-45 16.875-45 45V789C62 817.125 78.875 834 107 834h810c28.125 0 45-16.875 45-45v-810c0-28.125-16.875-45-45-45zM152 24h720V744H152v-720zM242 654h225v-225h-225zM557 654h225v-225h-225zM242 339h225v-225h-225zM557 339h225v-225h-225z"  horiz-adv-x="1024" />

    
    <glyph glyph-name="icon_daiban_lan" unicode="&#59121;" d="M880.551 744H788.138v-102.682c0-39.4773-32.1137-71.5909-71.5909-71.5909s-71.5909 32.1137-71.5909 71.5909V744h-265.909v-102.682c0-39.4773-32.1137-71.5909-71.5909-71.5909s-71.5909 32.1137-71.5909 71.5909V744H143.451A81.7773 81.7773 0 0 1 62.001 661.854v-645.75C62.001-29.100000000000022 98.492-66 143.451-66h737.1A81.7363 81.7363 0 0 1 962 16.145999999999958V661.854A81.9 81.9 0 0 1 880.551 744Zm-108.246-311.441l-257.318-257.318a67.2954 67.2954 0 0 0-100.432 4.58182l-136.227 164.618a30.6818 30.6818 0 1 0 47.2909 39.1091l136.227-164.659c2.82273-3.43637 6.54546-3.6 9.77728-0.327272l257.318 257.318a30.6818 30.6818 0 0 0 43.3637-43.3227ZM685.864 793.09v-151.773a30.6818 30.6818 0 0 1 61.3637 0V793.09a30.6818 30.6818 0 0 1-61.3637 0ZM276.774 793.09v-151.773a30.6818 30.6818 0 0 1 61.3637 0V793.09a30.6818 30.6818 0 0 1-61.3637 0Z"  horiz-adv-x="1024" />

    
    <glyph glyph-name="icon-complaint" unicode="&#59049;" d="M971.88864 616.50944c-0.65536 48.49664-1.39264 101.41696-1.51552 159.51872a39.81312 39.81312 0 0 1-28.672 38.07232c-137.60512 40.38656-428.032 81.92-430.08 81.92-82.96448-4.096-368.0256-63.30368-429.91616-81.92A39.8336 39.8336 0 0 1 53.27872 776.02816c0-52.28544-0.55296-100.47488-1.04448-145.05984-4.3008-382.976-5.89824-526.336 378.10176-733.88032a152.82176 152.82176 0 0 1 166.27712-0.65536c382.64832 202.69056 380.84608 322.6624 375.27552 720.0768z m-518.9632 49.99168c0 19.33312 26.624 35.0208 59.26912 35.0208s59.22816-15.68768 59.22816-35.0208v-377.71264c0-19.33312-26.5216-35.00032-59.22816-35.00032s-59.26912 15.6672-59.26912 35.00032V666.50112z m59.26912-587.30496a58.79808 58.79808 0 1 0 59.22816 58.79808 59.04384 59.04384 0 0 0-59.10528-58.79808z"  horiz-adv-x="1024" />

    
    <glyph glyph-name="icon_coordination" unicode="&#59227;" d="M374.663529 256.301176c0-10.842353-4.818824-20.48-14.45647-27.708235-9.637647-7.228235-21.684706-14.456471-36.141177-20.48s-30.117647-14.456471-48.188235-22.889412c-16.865882-8.432941-32.527059-19.275294-46.983529-33.731764h-16.865883c-24.094118 0-45.778824 2.409412-62.644706 7.228235-18.070588 4.818824-33.731765 12.047059-45.778823 20.48S81.92 197.270588 75.896471 208.112941c-6.023529 10.842353-9.637647 21.684706-9.637647 32.527059 0 12.047059 6.023529 22.889412 19.275294 30.117647 13.251765 7.228235 27.708235 14.456471 43.369411 21.684706 15.661176 6.023529 30.117647 13.251765 43.369412 20.48 13.251765 7.228235 19.275294 16.865882 19.275294 27.708235 0 10.842353-3.614118 21.684706-10.842353 31.322353-7.228235 9.637647-14.456471 20.48-22.889411 32.527059-8.432941 12.047059-16.865882 26.503529-22.889412 43.369412-7.228235 16.865882-10.842353 37.345882-10.842353 63.849412 0 18.070588 2.409412 36.141176 6.023529 54.211764 3.614118 16.865882 9.637647 32.527059 16.865883 45.778824 7.228235 13.251765 16.865882 24.094118 28.912941 31.322353 12.047059 7.228235 25.298824 12.047059 40.96 12.047059 21.684706 0 38.550588-3.614118 53.007059-10.842353-3.614118-21.684706-4.818824-44.574118-4.818824-67.46353 0-37.345882 3.614118-69.872941 9.637647-96.37647s14.456471-49.392941 22.889412-68.668236c-8.432941-10.842353-16.865882-22.889412-25.298824-33.731764-7.228235-10.842353-12.047059-22.889412-12.047058-37.345883 0-7.228235 3.614118-14.456471 12.047058-20.48s18.070588-10.842353 30.117647-15.661176 24.094118-10.842353 36.141177-15.661177c13.251765-4.818824 24.094118-10.842353 34.936471-16.865882 1.204706-3.614118 1.204706-8.432941 1.204705-15.661177z m438.512942 84.329412c0-6.023529 3.614118-12.047059 9.637647-18.070588 7.228235-4.818824 15.661176-10.842353 25.298823-15.661176s20.48-9.637647 33.731765-14.456471c12.047059-4.818824 22.889412-9.637647 33.731765-14.456471 9.637647-4.818824 18.070588-10.842353 25.298823-16.865882 7.228235-6.023529 9.637647-13.251765 9.637647-21.684706 0-13.251765-4.818824-25.298824-13.251765-34.93647-8.432941-9.637647-20.48-19.275294-34.93647-25.298824-14.456471-7.228235-31.322353-12.047059-50.597647-15.661176-19.275294-3.614118-38.550588-6.023529-59.030588-6.02353-16.865882 10.842353-33.731765 20.48-53.007059 26.50353-19.275294 6.023529-36.141176 12.047059-53.007059 16.865882-16.865882 4.818824-31.322353 10.842353-43.369412 16.865882-12.047059 6.023529-19.275294 15.661176-21.684706 27.708236 2.409412 10.842353 9.637647 20.48 22.889412 27.708235 13.251765 7.228235 26.503529 14.456471 42.164706 20.48 14.456471 6.023529 28.912941 13.251765 40.96 20.48 12.047059 7.228235 18.070588 15.661176 18.070588 26.503529 0 12.047059-4.818824 24.094118-14.45647 34.936471-9.637647 10.842353-19.275294 22.889412-28.912942 36.141176 9.637647 20.48 16.865882 45.778824 22.889412 74.691765 6.023529 28.912941 9.637647 62.644706 9.637647 101.195294 0 8.432941 0 16.865882-1.204706 25.298824l-3.614117 25.298823c15.661176 10.842353 28.912941 15.661176 40.96 15.661177 27.708235 0 49.392941-4.818824 66.258823-14.456471 16.865882-9.637647 28.912941-20.48 37.345883-34.936471 8.432941-13.251765 14.456471-28.912941 16.865882-44.574117 2.409412-15.661176 3.614118-30.117647 3.614118-43.369412 0-26.503529-4.818824-49.392941-13.251765-65.054118-8.432941-16.865882-18.070588-31.322353-27.708235-43.369411-9.637647-10.842353-19.275294-21.684706-27.708236-33.731765-8.432941-8.432941-13.251765-20.48-13.251764-33.731765zM565.007059 245.458824c0-12.047059 6.023529-24.094118 16.865882-33.731765 10.842353-9.637647 24.094118-19.275294 40.96-27.708235 16.865882-8.432941 34.936471-16.865882 54.211765-25.298824 19.275294-7.228235 37.345882-16.865882 54.211765-25.298824 16.865882-9.637647 30.117647-19.275294 40.96-30.117647 10.842353-10.842353 16.865882-24.094118 16.865882-39.755294 0-9.637647-8.432941-20.48-25.298824-28.912941-16.865882-9.637647-38.550588-18.070588-65.054117-25.298823-26.503529-7.228235-57.825882-14.456471-93.967059-18.070589-34.936471-4.818824-71.077647-7.228235-108.423529-7.228235-42.164706 0-79.510588 2.409412-113.242353 7.228235-32.527059 4.818824-60.235294 10.842353-81.92 18.070589-21.684706 7.228235-38.550588 15.661176-50.597647 25.298823s-16.865882 19.275294-16.865883 28.912941c0 14.456471 6.023529 27.708235 16.865883 39.755294 10.842353 10.842353 24.094118 21.684706 40.96 30.117647s33.731765 16.865882 53.007058 25.298824c19.275294 7.228235 37.345882 15.661176 53.007059 24.094118 16.865882 8.432941 30.117647 18.070588 40.96 27.708235 10.842353 9.637647 16.865882 21.684706 16.865883 36.141176s-2.409412 26.503529-8.432942 38.550589c-6.023529 12.047059-13.251765 24.094118-21.684706 36.141176s-18.070588 25.298824-27.708235 39.755294c-9.637647 14.456471-19.275294 30.117647-27.708235 48.188236-8.432941 18.070588-15.661176 38.550588-21.684706 62.644705-6.023529 22.889412-8.432941 50.597647-8.432941 80.715295 0 66.258824 12.047059 119.265882 36.141176 159.021176 24.094118 39.755294 62.644706 59.030588 113.242353 59.030588 43.369412 0 77.101176-6.023529 101.195294-19.275294 25.298824-13.251765 43.369412-30.117647 56.621177-50.597647 13.251765-20.48 20.48-43.369412 24.094117-68.668235 3.614118-25.298824 4.818824-49.392941 4.818824-73.487059 0-32.527059-2.409412-60.235294-8.432941-84.329412-6.023529-22.889412-12.047059-43.369412-20.48-61.44-8.432941-16.865882-16.865882-32.527059-26.50353-46.983529-8.432941-13.251765-18.070588-25.298824-26.503529-38.550588-8.432941-12.047059-15.661176-25.298824-20.48-37.345883-6.023529-14.456471-8.432941-28.912941-8.432941-44.574117z m0 0"  horiz-adv-x="1024" />

    
    <glyph glyph-name="xiugai-landi-" unicode="&#59003;" d="M229.505914 243.577717l359.029558 359.029558 54.678694-54.678694-359.029558-359.029558zM207.444634 78.74462500000004l111.751418 8.400106-103.353312 103.351312zM317.657033 155.52659900000003l359.031558 359.031558 54.677694-54.677694-359.031558-359.030558zM734.966331 702.22954c-12.519159 12.510159-34.349436 12.515159-46.869595-0.004l-66.013838-66.013838 142.831813-142.826813 66.013838 66.013838c12.917164 12.921164 12.917164 33.947431 0 46.868595l-95.962218 95.962218zM852.27582 892.694958h-679.868631c-93.385186 0-169.090147-75.703961-169.090147-169.090147v-679.868631c0-93.386186 75.704961-169.091147 169.090147-169.091146h679.868631c93.387186 0 169.092147 75.704961 169.092147 169.090146v679.868631c0 93.387186-75.704961 169.091147-169.092147 169.091147z m12.125154-366.767656l-475.258034-475.258034c-4.167053-4.171053-9.516121-6.357081-14.96819-6.766086l0.008-0.104001-181.551304-13.644173-15.091192-15.090192a23.822302 23.822302 0 0 0-16.897215-6.999089 23.822302 23.822302 0 0 0-16.897214 6.999089c-9.331118 9.332118-9.331118 24.462311 0 33.794429l15.111192 15.111192 13.642173 181.513304 0.104001-0.009c0.408005 5.453069 2.594033 10.800137 6.766086 14.96819l475.257034 475.259034c15.201193 15.200193 35.40845 23.573299 56.906722 23.573299s41.705529-8.373106 56.906723-23.569299l95.962218-95.967218c31.381398-31.377398 31.381398-82.434047-0.001-113.811445z"  horiz-adv-x="1024" />

    
    <glyph glyph-name="icon_yinhang" unicode="&#58889;" d="M736 64h96v448H736v-448Zm-144 0v448h-96v-448h96ZM352 64v448H256v-448H352Zm-224 0V544h-27.648a51.2 51.2 0 0 0-19.328 98.5603L495.552 812.16a128 128 0 0 0 96.8962 0l414.528-169.6A51.2 51.2 0 0 0 987.65 544H960v-480a64 64 0 0 0 0-128h-832a64 64 0 0 0 0 128Z"  horiz-adv-x="1092" />

    
    <glyph glyph-name="beizhu" unicode="&#58902;" d="M847.448276-22.068966H176.551724a70.62069 70.62069 0 0 0-70.62069 70.62069V719.448276a70.62069 70.62069 0 0 0 70.62069 70.62069h670.896552a70.62069 70.62069 0 0 0 70.62069-70.62069v-670.896552a70.62069 70.62069 0 0 0-70.62069-70.62069zM247.172414 525.241379v-70.620689h529.655172v70.620689z m0-282.482758h529.655172v70.620689H247.172414z"  horiz-adv-x="1024" />

    
    <glyph glyph-name="chucha" unicode="&#58969;" d="M512 384m-512 0a512 512 0 1 1 1024 0 512 512 0 1 1-1024 0ZM733.184 576.512c6.144 20.48 6.144 34.816-4.096 45.056-10.24 8.192-26.624 10.24-45.056 4.096-20.48-6.144-36.864-18.432-53.248-32.768l-49.152-49.152-204.8 49.152c-4.096 2.048-6.144 0-8.192-2.048l-38.912-38.912c-2.048-4.096-4.096-6.144-2.048-10.24 0-4.096 2.048-6.144 6.144-8.192l155.648-86.016-79.872-77.824-61.44 16.384h-2.048c-2.048 0-6.144 0-6.144-2.048l-28.672-30.72c-4.096-2.048-4.096-4.096-4.096-8.192s2.048-6.144 4.096-6.144L389.12 281.6l57.344-77.824c2.048-2.048 4.096-4.096 8.192-4.096 2.048 0 6.144 0 6.144 2.048l28.672 28.672c2.048 2.048 4.096 6.144 2.048 10.24l-16.384 59.392 79.872 79.872 86.016-155.648c2.048-2.048 4.096-4.096 6.144-4.096h2.048c2.048 0 4.096 0 6.144 2.048l38.912 28.672c4.096 2.048 4.096 6.144 4.096 10.24l-49.152 212.992 49.152 49.152c16.384 16.384 28.672 32.768 34.816 53.248z"  horiz-adv-x="1024" />
>>>>>>> 41772733ca44d6706986c1fb742036e1c412ca78

    
    <glyph glyph-name="zhuanfa" unicode="&#60517;" d="M618.624 570.592V784L992 410.56 618.624 37.28v218.656C351.904 255.936 165.312 170.56 32-16c53.184 266.56 213.28 533.28 586.624 586.592"  horiz-adv-x="1024" />

    
<<<<<<< HEAD
    <glyph glyph-name="duigou" unicode="&#59360;" d="M512 864C247.04 864 32 648.96 32 384s215.04-480 480-480 480 215.04 480 480S776.96 864 512 864z m322.08-370.08l-336-336c-18.72-18.72-48.96-18.72-67.68 0l-192 192c-17.76 18.72-17.76 48 0 66.72 18.24 19.2 48.96 19.68 67.68 0.96L464 259.68 765.92 561.6c18.72 17.76 48 17.76 66.72 0 19.2-18.24 19.68-48.48 1.44-67.68z"  horiz-adv-x="1024" />

    
    <glyph glyph-name="tousu" unicode="&#58892;" d="M543.452262 874.189987a43.414141 43.414141 0 0 0 75.29876 0l537.714952-937.185443a43.414141 43.414141 0 0 0-37.663106-65.004544H43.414141A43.400416 43.400416 0 0 0 5.764761-62.995456z m37.64938-394.446913a43.414141 43.414141 0 0 1-43.400416-43.414142v-217.043254a43.414141 43.414141 0 1 1 86.814557 0V436.328932a43.414141 43.414141 0 0 1-43.414141 43.414142z m0-347.258227A43.414141 43.414141 0 1 1 624.515783 88.988352a43.414141 43.414141 0 0 1-43.414141 43.469044z"  horiz-adv-x="1162" />

    
    <glyph glyph-name="gengduo" unicode="&#58907;" d="M119.333 385.002q0 36 25.5 61.5t61.5 25.5 61.5-25.5 25.5-61.5-25.5-61.5-61.5-25.5-61.5 25.5-25.5 61.5z m327-1q0 36 25.5 61.5t61.5 25.5 61.5-25.5 25.5-61.5q0-36-25.5-61.5t-61.5-25.5-61.5 25.5-25.5 61.5z m323 1q0 36 25.5 61.5t61.5 25.5 61.5-25.5 25.5-61.5-25.5-61.5-61.5-25.5-61.5 25.5-25.5 61.5z"  horiz-adv-x="1046" />

    
    <glyph glyph-name="iconsmile" unicode="&#58968;" d="M512-212C228.693333-212 0 16.693333 0 300 0 583.306667 228.693333 812 512 812c283.306667 0 512-228.693333 512-512C1024 16.693333 795.306667-212 512-212zM512 743.733333C266.24 743.733333 68.266667 545.76 68.266667 300c0-245.76 197.973333-443.733333 443.733333-443.733333 245.76 0 443.733333 197.973333 443.733333 443.733333C955.733333 545.76 757.76 743.733333 512 743.733333zM672.426667 330.72c-34.133333 0-64.853333 27.306667-64.853333 64.853333s27.306667 64.853333 64.853333 64.853333c34.133333 0 64.853333-27.306667 64.853333-64.853333S706.56 330.72 672.426667 330.72zM351.573333 330.72c-34.133333 0-64.853333 27.306667-64.853333 64.853333s27.306667 64.853333 64.853333 64.853333 64.853333-27.306667 64.853333-64.853333S389.12 330.72 351.573333 330.72zM256 269.28 256 269.28 256 269.28 256 269.28zM331.093333 204.426667c27.306667-75.093333 95.573333-126.293333 180.906667-126.293333s153.6 54.613333 180.906667 126.293333l68.266667 0c-27.306667-109.226667-126.293333-191.146667-245.76-191.146667S293.546667 95.2 266.24 204.426667L331.093333 204.426667z"  horiz-adv-x="1024" />

    
    <glyph glyph-name="iconstar" unicode="&#58891;" d="M1030.259 396.976c-8.322 23.971-29.678 41.543-55.361 45.359l-250.097 37.158-108.738 225.616c-11.414 23.67-35.924 38.841-62.841 38.841s-51.395-15.169-62.841-38.841l-108.707-225.616-250.126-37.158c-25.712-3.815-47.067-21.39-55.33-45.359-8.261-24.061-2.013-50.524 16.132-68.607l183.294-182.932-42.506-253.763c-4.327-25.534 6.758-51.186 28.478-66.144 11.925-8.173 25.952-12.346 39.98-12.346 11.534 0 23.07 2.822 33.582 8.443l218.046 117.331 218.046-117.331c10.514-5.614 22.078-8.443 33.582-8.443 14.059 0 28.023 4.176 40.012 12.346 21.687 14.958 32.771 40.612 28.478 66.144l-42.531 253.763 183.325 182.932c18.143 18.08 24.362 44.546 16.132 68.607zM781.155 192.598c-15.381-15.318-22.347-36.887-18.803-58.062l42.506-253.763-218.046 117.331c-10.484 5.614-22.047 8.443-33.582 8.443-11.534 0-23.102-2.822-33.553-8.443l-218.078-117.331 42.531 253.763c3.543 21.174-3.424 42.746-18.803 58.062l-183.263 182.901 250.097 37.247c22.829 3.396 42.506 17.665 52.358 38.059l108.707 225.556 108.738-225.556c9.824-20.395 29.469-34.665 52.326-38.059l250.126-37.247-183.263-182.901z"  horiz-adv-x="1135" />

    
    <glyph glyph-name="partner-icon-ok" unicode="&#58904;" d="M408.7749 75.772638L819.187328 485.877871l-72.498004 72.446805-337.914424-336.37845-131.479431 132.605812L204.797466 282.105233l203.977434-206.332595zM511.992397 792.919205a48.587998 48.587998 0 0 1-35.634612-14.745357 48.4856 48.4856 0 0 1-14.745357-35.634612c0-13.874971 4.915119-26.162768 14.745357-36.812192A46.744829 46.744829 0 0 1 511.992397 689.701708a46.744829 46.744829 0 0 1 35.634612 15.974136c9.830238 10.649424 14.745357 22.937222 14.745357 36.863392a48.4856 48.4856 0 0 1-14.745357 35.583413A48.587998 48.587998 0 0 1 511.992397 792.868006z m357.5749 0c27.85234 0 52.018342-10.239831 72.498004-30.719493 20.479662-20.479662 30.719493-44.594464 30.719493-72.446805v-714.586609c0-27.801141-10.239831-51.967143-30.719493-72.395606-20.479662-20.479662-44.645663-30.719493-72.498004-30.719493H154.417497C126.565156-128 102.399155-117.760169 81.919493-97.280507c-20.479662 20.479662-30.719493 44.543265-30.719493 72.395606V689.701708c0 27.85234 10.239831 51.967143 30.719493 72.446805 20.479662 20.479662 44.645663 30.719493 72.498004 30.719493h213.807672A154.723847 154.723847 0 0 0 422.905867 867.106781 145.098406 145.098406 0 0 0 511.992397 895.983104c33.586646 0 63.282156-9.625441 89.08653-28.876323 25.804374-19.199683 44.031273-43.980074 54.680698-74.238775h213.807672z"  horiz-adv-x="1024" />

    
    <glyph glyph-name="icon_file" unicode="&#58947;" d="M853.333333 560.64a52.48 52.48 0 0 1-34.133333 13.653333h-344.746667a49.92 49.92 0 0 1-39.68-20.48l-42.666666-49.92a30.293333 30.293333 0 0 0-23.893334-12.373333H204.8a52.48 52.48 0 0 1-34.133333-13.653333V640a37.12 37.12 0 0 0 34.133333 42.666667h162.56a29.013333 29.013333 0 0 0 23.893333-12.373334l42.666667-49.92a53.76 53.76 0 0 1 39.68-20.48h345.6a34.986667 34.986667 0 0 0 34.133333-39.253333z m-34.133333-13.653333h-344.746667a29.013333 29.013333 0 0 1-23.893333-12.373334l-42.666667-49.92a53.76 53.76 0 0 0-39.68-20.48H204.8a37.12 37.12 0 0 1-34.133333-42.666666v-298.666667a37.12 37.12 0 0 1 34.133333-42.666667h614.4a37.12 37.12 0 0 1 34.133333 42.666667V506.453333a37.12 37.12 0 0 1-34.133333 40.96z"  horiz-adv-x="1024" />

    
    <glyph glyph-name="icon-complaint" unicode="&#59049;" d="M971.88864 616.50944c-0.65536 48.49664-1.39264 101.41696-1.51552 159.51872a39.81312 39.81312 0 0 1-28.672 38.07232c-137.60512 40.38656-428.032 81.92-430.08 81.92-82.96448-4.096-368.0256-63.30368-429.91616-81.92A39.8336 39.8336 0 0 1 53.27872 776.02816c0-52.28544-0.55296-100.47488-1.04448-145.05984-4.3008-382.976-5.89824-526.336 378.10176-733.88032a152.82176 152.82176 0 0 1 166.27712-0.65536c382.64832 202.69056 380.84608 322.6624 375.27552 720.0768z m-518.9632 49.99168c0 19.33312 26.624 35.0208 59.26912 35.0208s59.22816-15.68768 59.22816-35.0208v-377.71264c0-19.33312-26.5216-35.00032-59.22816-35.00032s-59.26912 15.6672-59.26912 35.00032V666.50112z m59.26912-587.30496a58.79808 58.79808 0 1 0 59.22816 58.79808 59.04384 59.04384 0 0 0-59.10528-58.79808z"  horiz-adv-x="1024" />

    
    <glyph glyph-name="icon_coordination" unicode="&#59227;" d="M374.663529 256.301176c0-10.842353-4.818824-20.48-14.45647-27.708235-9.637647-7.228235-21.684706-14.456471-36.141177-20.48s-30.117647-14.456471-48.188235-22.889412c-16.865882-8.432941-32.527059-19.275294-46.983529-33.731764h-16.865883c-24.094118 0-45.778824 2.409412-62.644706 7.228235-18.070588 4.818824-33.731765 12.047059-45.778823 20.48S81.92 197.270588 75.896471 208.112941c-6.023529 10.842353-9.637647 21.684706-9.637647 32.527059 0 12.047059 6.023529 22.889412 19.275294 30.117647 13.251765 7.228235 27.708235 14.456471 43.369411 21.684706 15.661176 6.023529 30.117647 13.251765 43.369412 20.48 13.251765 7.228235 19.275294 16.865882 19.275294 27.708235 0 10.842353-3.614118 21.684706-10.842353 31.322353-7.228235 9.637647-14.456471 20.48-22.889411 32.527059-8.432941 12.047059-16.865882 26.503529-22.889412 43.369412-7.228235 16.865882-10.842353 37.345882-10.842353 63.849412 0 18.070588 2.409412 36.141176 6.023529 54.211764 3.614118 16.865882 9.637647 32.527059 16.865883 45.778824 7.228235 13.251765 16.865882 24.094118 28.912941 31.322353 12.047059 7.228235 25.298824 12.047059 40.96 12.047059 21.684706 0 38.550588-3.614118 53.007059-10.842353-3.614118-21.684706-4.818824-44.574118-4.818824-67.46353 0-37.345882 3.614118-69.872941 9.637647-96.37647s14.456471-49.392941 22.889412-68.668236c-8.432941-10.842353-16.865882-22.889412-25.298824-33.731764-7.228235-10.842353-12.047059-22.889412-12.047058-37.345883 0-7.228235 3.614118-14.456471 12.047058-20.48s18.070588-10.842353 30.117647-15.661176 24.094118-10.842353 36.141177-15.661177c13.251765-4.818824 24.094118-10.842353 34.936471-16.865882 1.204706-3.614118 1.204706-8.432941 1.204705-15.661177z m438.512942 84.329412c0-6.023529 3.614118-12.047059 9.637647-18.070588 7.228235-4.818824 15.661176-10.842353 25.298823-15.661176s20.48-9.637647 33.731765-14.456471c12.047059-4.818824 22.889412-9.637647 33.731765-14.456471 9.637647-4.818824 18.070588-10.842353 25.298823-16.865882 7.228235-6.023529 9.637647-13.251765 9.637647-21.684706 0-13.251765-4.818824-25.298824-13.251765-34.93647-8.432941-9.637647-20.48-19.275294-34.93647-25.298824-14.456471-7.228235-31.322353-12.047059-50.597647-15.661176-19.275294-3.614118-38.550588-6.023529-59.030588-6.02353-16.865882 10.842353-33.731765 20.48-53.007059 26.50353-19.275294 6.023529-36.141176 12.047059-53.007059 16.865882-16.865882 4.818824-31.322353 10.842353-43.369412 16.865882-12.047059 6.023529-19.275294 15.661176-21.684706 27.708236 2.409412 10.842353 9.637647 20.48 22.889412 27.708235 13.251765 7.228235 26.503529 14.456471 42.164706 20.48 14.456471 6.023529 28.912941 13.251765 40.96 20.48 12.047059 7.228235 18.070588 15.661176 18.070588 26.503529 0 12.047059-4.818824 24.094118-14.45647 34.936471-9.637647 10.842353-19.275294 22.889412-28.912942 36.141176 9.637647 20.48 16.865882 45.778824 22.889412 74.691765 6.023529 28.912941 9.637647 62.644706 9.637647 101.195294 0 8.432941 0 16.865882-1.204706 25.298824l-3.614117 25.298823c15.661176 10.842353 28.912941 15.661176 40.96 15.661177 27.708235 0 49.392941-4.818824 66.258823-14.456471 16.865882-9.637647 28.912941-20.48 37.345883-34.936471 8.432941-13.251765 14.456471-28.912941 16.865882-44.574117 2.409412-15.661176 3.614118-30.117647 3.614118-43.369412 0-26.503529-4.818824-49.392941-13.251765-65.054118-8.432941-16.865882-18.070588-31.322353-27.708235-43.369411-9.637647-10.842353-19.275294-21.684706-27.708236-33.731765-8.432941-8.432941-13.251765-20.48-13.251764-33.731765zM565.007059 245.458824c0-12.047059 6.023529-24.094118 16.865882-33.731765 10.842353-9.637647 24.094118-19.275294 40.96-27.708235 16.865882-8.432941 34.936471-16.865882 54.211765-25.298824 19.275294-7.228235 37.345882-16.865882 54.211765-25.298824 16.865882-9.637647 30.117647-19.275294 40.96-30.117647 10.842353-10.842353 16.865882-24.094118 16.865882-39.755294 0-9.637647-8.432941-20.48-25.298824-28.912941-16.865882-9.637647-38.550588-18.070588-65.054117-25.298823-26.503529-7.228235-57.825882-14.456471-93.967059-18.070589-34.936471-4.818824-71.077647-7.228235-108.423529-7.228235-42.164706 0-79.510588 2.409412-113.242353 7.228235-32.527059 4.818824-60.235294 10.842353-81.92 18.070589-21.684706 7.228235-38.550588 15.661176-50.597647 25.298823s-16.865882 19.275294-16.865883 28.912941c0 14.456471 6.023529 27.708235 16.865883 39.755294 10.842353 10.842353 24.094118 21.684706 40.96 30.117647s33.731765 16.865882 53.007058 25.298824c19.275294 7.228235 37.345882 15.661176 53.007059 24.094118 16.865882 8.432941 30.117647 18.070588 40.96 27.708235 10.842353 9.637647 16.865882 21.684706 16.865883 36.141176s-2.409412 26.503529-8.432942 38.550589c-6.023529 12.047059-13.251765 24.094118-21.684706 36.141176s-18.070588 25.298824-27.708235 39.755294c-9.637647 14.456471-19.275294 30.117647-27.708235 48.188236-8.432941 18.070588-15.661176 38.550588-21.684706 62.644705-6.023529 22.889412-8.432941 50.597647-8.432941 80.715295 0 66.258824 12.047059 119.265882 36.141176 159.021176 24.094118 39.755294 62.644706 59.030588 113.242353 59.030588 43.369412 0 77.101176-6.023529 101.195294-19.275294 25.298824-13.251765 43.369412-30.117647 56.621177-50.597647 13.251765-20.48 20.48-43.369412 24.094117-68.668235 3.614118-25.298824 4.818824-49.392941 4.818824-73.487059 0-32.527059-2.409412-60.235294-8.432941-84.329412-6.023529-22.889412-12.047059-43.369412-20.48-61.44-8.432941-16.865882-16.865882-32.527059-26.50353-46.983529-8.432941-13.251765-18.070588-25.298824-26.503529-38.550588-8.432941-12.047059-15.661176-25.298824-20.48-37.345883-6.023529-14.456471-8.432941-28.912941-8.432941-44.574117z m0 0"  horiz-adv-x="1024" />

    
    <glyph glyph-name="icon_talk_bujinyan" unicode="&#58976;" d="M621.4144 76.7488l-108.3904-161.6384L411.0336 76.8H204.8a153.6 153.6 0 0 0-153.6 153.6V640A153.6 153.6 0 0 0 204.8 793.6h616.448a153.6 153.6 0 0 0 153.6-153.6v-409.6a153.6 153.6 0 0 0-153.6-153.6512h-199.8336z m-389.632 460.8a25.6 25.6 0 1 1 0-51.2h204.8a25.6 25.6 0 0 1 0 51.2h-204.8z m0-153.6a25.6 25.6 0 1 1 0-51.2h512a25.6 25.6 0 1 1 0 51.2h-512z"  horiz-adv-x="1024" />

    
    <glyph glyph-name="nav_icon_handover_se" unicode="&#58896;" d="M392.35 412.831c129.002 0 233.574 104.574 233.574 233.568 0 128.997-104.572 233.571-233.574 233.571-128.994 0-233.568-104.574-233.568-233.571 0-128.994 104.574-233.568 233.568-233.568zM663.359 646.399c0-83.837-38.757-162.97-105-214.358 87.024-37.337 187.986-18.398 255.559 47.941 67.576 66.343 88.372 166.936 52.646 254.631C830.835 822.315 745.663 879.738 650.967 879.97a231.581 231.581 0 0 1-92.607-19.209c66.243-51.393 104.999-130.522 104.999-214.362zM809.052 333.318h-193.07c122.266-0.055 221.337-99.207 221.293-221.469v-225.788h173.789V131.13c0.04 111.616-90.4 202.134-202.012 202.188zM560.397 333.318h-341.06A202.191 202.191 0 0 1 76.37 274.102a202.207 202.207 0 0 1-59.219-142.973v-245.068h745.433V131.13a202.172 202.172 0 0 1-59.221 142.969 202.158 202.158 0 0 1-142.966 59.219z m-66.168-311.015H356.844l10.436-13.148c12.153-14.909 8.671-36.748-6.086-49a40.048 40.048 0 0 0-21.743-7.003 35.27 35.27 0 0 0-27.803 13.141l-53.894 69.997a35.081 35.081 0 0 0-3.455 36.749 36.21 36.21 0 0 0 31.209 19.259h208.72c18.971-0.503 34.09-16.023 34.09-34.998 0-18.98-15.119-34.5-34.089-34.997z m31.207 123.762h0.076a36.208 36.208 0 0 0-31.283-19.208h-208.72c-19.276 0-34.896 15.621-34.896 34.9 0 19.274 15.62 34.899 34.896 34.899h138.179l-10.436 13.095c-12.152 14.906-8.675 36.648 6.084 48.846 14.763 12.206 36.501 8.724 48.679-6.112l53.895-69.795a34.782 34.782 0 0 0 3.526-36.625z"  horiz-adv-x="1024" />

    
    <glyph glyph-name="icon-fujian" unicode="&#59192;" d="M505.250909 733.370182a27.927273 27.927273 0 0 0 39.493818-39.493818l-343.272727-343.272728A179.409455 179.409455 0 0 1 455.214545 96.930909l412.904728 412.904727a111.709091 111.709091 0 1 1-157.975273 157.975273L291.84 249.483636a41.890909 41.890909 0 1 1 59.252364-59.229091l348.625454 348.625455a27.927273 27.927273 0 0 0 39.517091-39.470545L390.586182 150.760727a97.745455 97.745455 0 1 0-138.24 138.24L670.650182 707.258182A167.563636 167.563636 0 1 0 907.613091 470.341818L494.708364 57.413818c-91.880727-91.880727-240.826182-91.880727-332.706909 0-91.880727 91.880727-91.880727 240.826182 0 332.706909L505.250909 733.393455z"  horiz-adv-x="1070" />

    
    <glyph glyph-name="arrfill_d-copy-copy" unicode="&#58909;" d="M218.70299999999958-12.42199999999957l7.958078640513122e-13 799.4199999999998c4.973799150320701e-14 44.23899999999999 35.50300000000009 80.02299999999997 79.74300000000008 80.02199999999992 20.57-1.7763568394002505e-14 39.16999999999999-7.8920000000000385 53.260999999999996-20.56900000000005l527.5029999999998-395.33900000000045c34.94099999999998-26.487000000000027 42.270999999999916-76.36600000000004 15.780999999999885-111.58499999999998-4.510000000000005-6.200999999999994-9.868000000000004-11.554999999999994-15.782000000000009-15.781999999999986l-533.1310000000003-399.85699999999963c-34.94500000000002-26.198999999999984-85.09-19.155999999999935-111.303 16.064000000000107-10.990999999999987 14.375000000000007-16.063999999999968 30.997000000000007-16.063999999999943 47.619v0z"  horiz-adv-x="1024" />

    
    <glyph glyph-name="zuixiaohua" unicode="&#58946;" d="M298.49 215.745H119.834c-17.673 0-32 14.327-32 32 0 17.673 14.327 32 32 32h256c17.673 0 32-14.327 32-32v-256c0-17.673-14.327-32-32-32-17.673 0-32 14.327-32 32V170.58L118.627-54.627c-12.496-12.497-32.758-12.497-45.254 0-12.497 12.496-12.497 32.758 0 45.254L298.49 215.745z m426.93 336.42h178.835c17.673 0 32-14.326 32-32 0-17.672-14.327-32-32-32h-256c-17.673 0-32 14.328-32 32v256c0 17.674 14.327 32 32 32 17.673 0 32-14.326 32-32V597.51L905.373 822.627c12.496 12.497 32.758 12.497 45.254 0 12.497-12.496 12.497-32.758 0-45.254L725.421 552.166zM680.256 170.49v-178.745c0-17.673-14.327-32-32-32-17.673 0-32 14.327-32 32v256c0 17.673 14.327 32 32 32h256c17.673 0 32-14.327 32-32 0-17.673-14.327-32-32-32H725.51l225.117-225.118c12.497-12.496 12.497-32.758 0-45.254-12.496-12.497-32.758-12.497-45.254 0L680.255 170.49z m-336.42 426.93V776.167c0 17.673 14.326 32 32 32 17.672 0 32-14.327 32-32v-256c0-17.673-14.328-32-32-32h-256c-17.674 0-32 14.327-32 32 0 17.673 14.326 32 32 32h178.744L73.373 777.373c-12.497 12.496-12.497 32.758 0 45.254 12.496 12.497 32.758 12.497 45.254 0l225.207-225.206z"  horiz-adv-x="1024" />

    
    <glyph glyph-name="icon_enlarge" unicode="&#58925;" d="M879.616-25.6H675.84c-22.528 0-40.96 18.432-40.96 40.96s18.432 40.96 40.96 40.96h107.52l-196.608 196.608 57.856 57.856 195.584-195.584-1.024 104.96c0 22.528 18.432 40.96 40.96 40.96s40.96-18.432 40.96-40.96v-204.8c0-12.288-5.12-22.016-12.8-28.672-7.168-7.68-17.408-12.288-28.672-12.288z m1.024 532.48c-22.528 0-40.96 18.432-40.96 40.96l1.024 104.96-195.584-195.584-57.856 57.856 196.608 196.608h-107.52c-22.528 0-40.96 18.432-40.96 40.96s18.432 40.96 40.96 40.96h203.776c11.264 0 21.504-4.608 29.184-12.288 7.68-6.656 12.8-16.384 12.8-28.672v-204.8c-0.512-22.528-18.944-40.96-41.472-40.96z m-532.48-450.56c22.528 0 40.96-18.432 40.96-40.96s-18.432-40.96-40.96-40.96h-203.776c-11.264 0-21.504 4.608-29.184 12.288-7.68 6.656-12.8 16.384-12.8 28.672v204.8c0 22.528 18.432 40.96 40.96 40.96s40.96-18.432 40.96-40.96l-1.024-104.96 195.584 195.584 57.856-57.856-196.608-196.608h108.032z m31.232 400.896l-195.584 195.584 1.024-104.96c0-22.528-18.432-40.96-40.96-40.96s-40.96 18.432-40.96 40.96v204.8c0 12.288 5.12 22.016 12.8 28.672 7.68 7.68 17.92 12.288 29.184 12.288h203.776c22.528 0 40.96-18.432 40.96-40.96s-18.432-40.96-40.96-40.96h-107.52l196.608-196.608-58.368-57.856z"  horiz-adv-x="1024" />

    
    <glyph glyph-name="fuzhi1" unicode="&#58928;" d="M192 896h640c106 0 192-86 192-192v-640c0-106-86-192-192-192H192C86-128 0-42 0 64V704C0 810 86 896 192 896zM572.038 437.562c-3.8 3.8-7.8 7.2-12.1 10.5-9.2 9-23.9 9.1-33.3 0.4-9.4-8.7-10.2-23.3-1.9-33 1.7-2 3.7-3.8 5.9-5.1 2.3-1.9 4.5-3.7 6.6-5.8l2-2c24.9-24.8 17.5-67.5-7.5-92.3l-106.5-105.9c-25-24.8-65.5-24.8-90.5 0l-2 2c-25 24.9-25 65.1 0 90l47.1 46.8c8.8 6.8 12.2 18.5 8.5 28.9-3.7 10.5-13.6 17.5-24.8 17.4-5.2 0-10.4-1.6-14.7-4.5l-0.1 0.1-0.5-0.5c-1.9-1.3-3.5-2.9-5-4.6l-48.9-45.5c-46-46-46-120.3 0-166.3l2-2c46.2-45.7 120.9-45.7 167.1 0l106.5 106c46 45.7 50 117.8 4 163.5l-1.9 1.9zM729.538 599.562l-2 2c-46.3 46-121.2 46-167.5 0l-106.7-106.7c-46.1-46-48.6-112.4-2.5-158.5l2-1.9c2.1-2.1 4.2-4 6.5-5.9 1.6-1.8 3.5-3.3 5.6-4.5h0.1c8.7-5 19.6-3.7 26.9 3.1 7.3 6.8 9.3 17.6 5 26.5-3 6.7-8.6 10.9-12.5 14.7l-1.9 1.9c-25 25-15.5 61.3 9.5 86.3l106.5 106.6c25 25 65.6 25 90.7 0l2-2c25-25 25-65.6 0-90.6l-47-47c-11.9-8-15-24.2-7-36 8-11.9 24.2-15 36.1-6.9 0-0.1 0-0.1 0.1-0.2l0.7 0.7c2.2 1.5 4.2 3.3 5.9 5.4l49.5 45.7c46 46.3 46.1 121 0 167.3z"  horiz-adv-x="1024" />

    
    <glyph glyph-name="fuzhi" unicode="&#58917;" d="M512 384m-512 0a512 512 0 1 1 1024 0 512 512 0 1 1-1024 0ZM588.8 438.4c-9.6 9.6-25.6 9.6-32 0-9.6-9.6-9.6-22.4-3.2-32l6.4-6.4 6.4-6.4 3.2-3.2c25.6-25.6 16-67.2-6.4-92.8L454.4 192c-25.6-25.6-67.2-25.6-89.6 0h-6.4c-25.6 25.6-25.6 67.2 0 92.8l48 48c9.6 6.4 12.8 19.2 9.6 28.8-3.2 9.6-12.8 19.2-25.6 19.2-6.4 0-9.6-3.2-16-3.2l-6.4-6.4-48-48c-44.8-48-44.8-121.6 0-169.6l3.2-3.2c44.8-44.8 121.6-44.8 166.4 0l105.6 108.8c44.8 44.8 51.2 118.4 3.2 166.4l-3.2 3.2c0 3.2-3.2 6.4-6.4 9.6zM742.4 595.2c-48 44.8-121.6 44.8-169.6 0l-105.6-105.6c-48-41.6-51.2-105.6-3.2-153.6l3.2-3.2 6.4-6.4c3.2-3.2 3.2-3.2 6.4-3.2 9.6-6.4 19.2-3.2 25.6 3.2 6.4 6.4 9.6 16 6.4 25.6-3.2 6.4-9.6 9.6-12.8 12.8l-3.2 3.2c-25.6 25.6-16 60.8 9.6 83.2l105.6 102.4c25.6 25.6 67.2 25.6 89.6 0l3.2-3.2c25.6-25.6 25.6-64 0-89.6L656 416c-12.8-6.4-16-22.4-6.4-35.2 9.6-12.8 25.6-16 35.2-6.4 3.2 3.2 6.4 3.2 6.4 6.4l51.2 44.8c48 51.2 48 124.8 0 169.6z"  horiz-adv-x="1024" />
=======
    <glyph glyph-name="zanting1" unicode="&#58899;" d="M512 768a382.6 382.6 0 1 0-149.45-30.15A381.54 381.54 0 0 0 512 768m0 64C264.58 832 64 631.4200000000001 64 384s200.58-448 448-448 448 200.58 448 448S759.42 832 512 832zM384 576v-384 384m0 64a64 64 0 0 1-64-64v-384a64 64 0 0 1 64-64 64 64 0 0 1 64 64V576a64 64 0 0 1-64 64zM640 576v-384 384m0 64a64 64 0 0 1-64-64v-384a64 64 0 0 1 64-64 64 64 0 0 1 64 64V576a64 64 0 0 1-64 64z"  horiz-adv-x="1024" />

    
    <glyph glyph-name="duigou" unicode="&#59360;" d="M512 864C247.04 864 32 648.96 32 384s215.04-480 480-480 480 215.04 480 480S776.96 864 512 864z m322.08-370.08l-336-336c-18.72-18.72-48.96-18.72-67.68 0l-192 192c-17.76 18.72-17.76 48 0 66.72 18.24 19.2 48.96 19.68 67.68 0.96L464 259.68 765.92 561.6c18.72 17.76 48 17.76 66.72 0 19.2-18.24 19.68-48.48 1.44-67.68z"  horiz-adv-x="1024" />

    
    <glyph glyph-name="jietu" unicode="&#58914;" d="M889.6 819.2c-13.952 13.952-36.736 13.952-50.688 0L264.576 244.864c-13.952-13.952-13.952-36.736 0-50.688 13.952-13.952 36.736-13.952 50.688 0L889.6 768.512c13.952 13.952 13.952 36.736 0 50.688zM730.752 194.048c13.952 13.952 13.952 36.736 0 50.688L156.544 818.944c-13.952 13.952-36.736 13.952-50.688 0-13.952-13.952-13.952-36.736 0-50.688l574.208-574.208c13.952-13.952 36.864-13.952 50.688 0zM401.92 97.92c0-89.088-72.192-161.28-161.28-161.28s-161.28 72.192-161.28 161.28 72.192 161.28 161.28 161.28 161.28-72.192 161.28-161.28z m-161.28 89.6c-49.536 0-89.6-40.064-89.6-89.6s40.064-89.6 89.6-89.6 89.6 40.064 89.6 89.6-40.064 89.6-89.6 89.6zM944.64 97.92c0-89.088-72.192-161.28-161.28-161.28s-161.28 72.192-161.28 161.28 72.192 161.28 161.28 161.28 161.28-72.192 161.28-161.28z m-161.28 89.6c-49.536 0-89.6-40.064-89.6-89.6s40.064-89.6 89.6-89.6 89.6 40.064 89.6 89.6-40.064 89.6-89.6 89.6z"  horiz-adv-x="1024" />

    
    <glyph glyph-name="zhuanfa1" unicode="&#58961;" d="M421.76 561.28V768L50.56 451.84a48.64 48.64 0 0 1 0-76.8l371.2-316.16V265.6c209.92 0 405.12-44.16 570.24-265.6-74.88 413.44-389.76 561.28-570.24 561.28"  horiz-adv-x="1024" />

    
    <glyph glyph-name="icon_talk" unicode="&#58983;" d="M687 134.00099999999998l-175-150-175 150H162a100 100 0 0 0-100 100V684a100 100 0 0 0 100 100h699.999a100 100 0 0 0 100-100v-450a100 100 0 0 0-100-100h-175ZM262.001 384a50 50 0 1 1 0 100 50 50 0 0 1 0-100Zm249.999 0a50 50 0 1 1 0 100 50 50 0 0 1 0-100Zm249.999 0a50 50 0 1 1 0 100 50 50 0 0 1 0-100Z"  horiz-adv-x="1024" />

    
    <glyph glyph-name="fuzhi" unicode="&#58917;" d="M512 384m-512 0a512 512 0 1 1 1024 0 512 512 0 1 1-1024 0ZM588.8 438.4c-9.6 9.6-25.6 9.6-32 0-9.6-9.6-9.6-22.4-3.2-32l6.4-6.4 6.4-6.4 3.2-3.2c25.6-25.6 16-67.2-6.4-92.8L454.4 192c-25.6-25.6-67.2-25.6-89.6 0h-6.4c-25.6 25.6-25.6 67.2 0 92.8l48 48c9.6 6.4 12.8 19.2 9.6 28.8-3.2 9.6-12.8 19.2-25.6 19.2-6.4 0-9.6-3.2-16-3.2l-6.4-6.4-48-48c-44.8-48-44.8-121.6 0-169.6l3.2-3.2c44.8-44.8 121.6-44.8 166.4 0l105.6 108.8c44.8 44.8 51.2 118.4 3.2 166.4l-3.2 3.2c0 3.2-3.2 6.4-6.4 9.6zM742.4 595.2c-48 44.8-121.6 44.8-169.6 0l-105.6-105.6c-48-41.6-51.2-105.6-3.2-153.6l3.2-3.2 6.4-6.4c3.2-3.2 3.2-3.2 6.4-3.2 9.6-6.4 19.2-3.2 25.6 3.2 6.4 6.4 9.6 16 6.4 25.6-3.2 6.4-9.6 9.6-12.8 12.8l-3.2 3.2c-25.6 25.6-16 60.8 9.6 83.2l105.6 102.4c25.6 25.6 67.2 25.6 89.6 0l3.2-3.2c25.6-25.6 25.6-64 0-89.6L656 416c-12.8-6.4-16-22.4-6.4-35.2 9.6-12.8 25.6-16 35.2-6.4 3.2 3.2 6.4 3.2 6.4 6.4l51.2 44.8c48 51.2 48 124.8 0 169.6z"  horiz-adv-x="1024" />

    
    <glyph glyph-name="yidu" unicode="&#58897;" d="M662.7328 343.8592a90.3168 90.3168 0 0 1-97.4848 0l-93.696-62.8736-466.944-314.1632C21.8112-88.9856 83.2512-128 153.6-128h921.6c70.0416 0.3072 131.072 39.3216 148.2752 94.8224l-466.944 314.1632-93.7984 62.8736z m-93.5936 61.5424a90.624 90.624 0 0 0 93.5936-0.6144l92.9792-62.8736 396.288 265.216L691.2 879.2064a183.6032 183.6032 0 0 1-153.6 0L76.8 607.1296l399.36-264.4992 92.9792 62.7712z m633.5488 164.6592L804.864 311.808 1228.8 25.9072V500.3264c0 24.7808-9.216 49.152-26.112 69.632z m-1176.576 0A110.1824 110.1824 0 0 1 0 500.3264v-474.4192l423.936 285.9008L26.112 570.0608z"  horiz-adv-x="1228" />

    
    <glyph glyph-name="guolv" unicode="&#58960;" d="M426.666667 341.333333L158.165333 609.834667A42.666667 42.666667 0 0 0 188.330667 682.666667h647.338666a42.666667 42.666667 0 0 0 30.165334-72.832L597.333333 341.333333v-341.333333l-170.666666 85.333333v256z"  horiz-adv-x="1024" />

    
    <glyph glyph-name="wenjianshangchuan" unicode="&#58927;" d="M146.9053741 775.55273438C133.13079175 770.91574594 123.31128755 761.6417698299999 118.53791767 749.0946259 116.62856972 743.91210938 116.4921875 714.45359676 116.76495116 452.73653019l0.40914665-290.63005106 44.18776892 159.70332706c34.77741137 125.88058969 45.41520733 162.29458535 49.91581355 171.97770732 17.32051457 37.23228742 58.50788012 66.96356447 109.10560398 78.82879808 12.13799803 2.86402193 13.77458233 2.86402193 248.07886568 3.27316858l235.80448543 0.5455281-0.81829253 18.68433442c-0.68191031 21.00282905-3.27316781 31.640625-11.45608773 46.64264575-13.22905423 24.41237906-33.27720929 41.18736554-60.41722807 50.73410531l-12.95629057 4.50060622-144.56492488 0.40914586-144.56492412 0.4091459-13.63820087 19.91177284c-21.27559269 30.95871469-31.77700722 40.91460111-54.00727313 51.41601562C342.47716873 778.41675631 345.20480844 778.14399264 244.69127179 778.14399264c-83.60216871-0.13638222-91.23956053-0.27276366-97.78589769-2.59125826zM351.75114483 532.65638446c-41.05098332-8.72844801-78.69241662-34.23188327-94.64911057-64.09954177-2.72763972-5.18251653-23.32132287-73.10075421-61.64466648-203.34556866-54.14365534-184.25208758-57.55320613-196.39008639-58.09873345-208.52808443-0.81829175-14.7292563 1.63658429-23.32132287 9.68312198-35.05017503 5.59166242-8.18291991 20.73006459-19.77539063 31.50424279-24.13961462 20.04815428-8.04653847 5.18251653-7.63739259 292.26663536-7.63739259 286.26582707 0 273.03677285-0.40914588 296.90362381 7.63739259 24.95790715 8.18291991 52.77983548 26.45810846 66.4180356 43.36947715 3.54593225 4.364224 8.45568434 12.0016166 11.04694261 17.04775091 3.54593225 6.54633639 19.91177285 60.96275617 61.50828426 202.93642202 31.36786134 106.78710938 57.55320613 197.75390625 58.37149789 202.25451247 0.95467397 5.86442608 0.95467397 10.63779597-0.13638221 16.77498648-4.09146035 23.59408653-21.54835637 41.46012921-49.91581355 51.14325196l-10.9105604 3.68231369-270.03636869 0.27276443c-260.48962816 0.27276366-270.44551457 0.13638222-282.31074895-2.3184946z m263.21726864-148.92914812c50.87048753-38.18696139 81.82920221-62.73572191 83.87493238-66.41803637 2.04573017-4.09146035 3.00040416-15.68393028 1.50020208-19.50262696L698.84334585 293.9878771h-57.28044169v-68.32738432c0-48.5519937-0.40914588-69.96396784-1.6365843-73.78266373-0.81829175-3.00040416-3.95507813-7.77377403-6.95548228-10.77417897-9.13759465-9.13759465-11.59247072-9.41035833-73.91904596-9.41035833h-54.68918421l-6.9554815 3.40955003c-7.36462816 3.68231447-13.22905423 10.63779597-15.41116662 18.547953-0.81829175 2.72763972-1.36381986 32.32253531-1.36382063 72.41884388V293.9878771h-27.27640022c-27.276401 0-27.41278322 0-30.68595102 3.40955003-4.09146035 3.95507813-4.364224 8.59206656-0.81829254 15.41116662 3.54593225 6.95548227 8.04653847 10.91056041 47.87008416 42.82394906 44.18776969 35.4593209 69.41844051 54.28003755 79.64708983 59.5989363 14.32011043 7.63739259 11.72885215 8.86483022 65.5997446-31.50424277z"  horiz-adv-x="1099" />

    
    </font>
</defs>
</svg>
